<svg xmlns="http://www.w3.org/2000/svg" width="512" height="512" viewBox="-4 -4 72 72" xml:space="preserve"><path d="M9.782 33a1 1 0 0 1-.75-.338 53 53 0 0 1-5.9-8.285C.985 20.451-.833 16.106.407 10.944a9.18 9.18 0 0 1 3.722-5.677 7.7 7.7 0 0 1 6.134-1.035 8.4 8.4 0 0 1 5.242 3.924 8.4 8.4 0 0 1 6.451-1.106c4.515 1.088 6.926 5.489 5.732 10.466-1.24 5.163-4.83 8.2-8.526 10.721a53 53 0 0 1-9.013 4.694 1 1 0 0 1-.367.069M8.344 6a5.56 5.56 0 0 0-3.107.93 7.23 7.23 0 0 0-2.885 4.479c-1.021 4.253.275 7.875 2.537 12.005a50.3 50.3 0 0 0 5.182 7.386 50 50 0 0 0 7.965-4.213c3.888-2.648 6.686-5.284 7.707-9.536.939-3.912-.811-7.225-4.256-8.054a6.57 6.57 0 0 0-5.66 1.4A1 1 0 0 1 14.2 10a6.55 6.55 0 0 0-4.41-3.822A6.2 6.2 0 0 0 8.344 6m37.631 34.716a1 1 0 0 1-.319-.053A29 29 0 0 1 40.6 38.35c-2.13-1.3-4.218-2.9-5.066-5.779s.457-5.554 3.108-6.334a4.9 4.9 0 0 1 3.444.26 4.92 4.92 0 0 1 2.755-2.083 4.6 4.6 0 0 1 3.685.435 5.38 5.38 0 0 1 2.358 3.208c.848 2.883-.042 5.357-1.132 7.6a29 29 0 0 1-3 4.683 1 1 0 0 1-.777.376m-5.961-12.677a3 3 0 0 0-.806.116c-1.589.468-2.294 2.016-1.754 3.852.62 2.106 2.122 3.376 4.187 4.634a25.6 25.6 0 0 0 3.984 1.883 25.6 25.6 0 0 0 2.329-3.74c1.056-2.175 1.632-4.055 1.012-6.163a3.43 3.43 0 0 0-1.461-2.054 2.6 2.6 0 0 0-2.1-.235 3.07 3.07 0 0 0-1.952 1.868 1.01 1.01 0 0 1-.679.656 1 1 0 0 1-.92-.194 3.15 3.15 0 0 0-1.84-.623m4.807 29.893a1 1 0 0 1-.43-.1 21 21 0 0 1-3.439-2.109 7.5 7.5 0 0 1-3.2-4.711 3.73 3.73 0 0 1 2.984-4.553 3.8 3.8 0 0 1 2.407.4A3.82 3.82 0 0 1 45.29 45.7a3.56 3.56 0 0 1 2.8.682 4.12 4.12 0 0 1 1.5 2.657 7.5 7.5 0 0 1-1.5 5.494 21 21 0 0 1-2.569 3.111 1 1 0 0 1-.7.288m-3.466-9.523a2 2 0 0 0-.289.025 1.746 1.746 0 0 0-1.34 2.252 5.62 5.62 0 0 0 2.465 3.468 17.4 17.4 0 0 0 2.426 1.546 17.5 17.5 0 0 0 1.793-2.251 5.62 5.62 0 0 0 1.207-4.081 2.17 2.17 0 0 0-.752-1.4 1.58 1.58 0 0 0-1.246-.292 1.9 1.9 0 0 0-1.33.983 1 1 0 0 1-1.646.275 1.94 1.94 0 0 0-1.288-.525M60.3 60a1 1 0 0 1-.421-.093 15 15 0 0 1-2.464-1.469 5.47 5.47 0 0 1-2.362-3.41 3.1 3.1 0 0 1 .481-2.34 2.8 2.8 0 0 1 1.86-1.132 2.94 2.94 0 0 1 1.673.21 2.93 2.93 0 0 1 1.516-.727 2.894 2.894 0 0 1 3.352 2.532 5.38 5.38 0 0 1-1.1 3.981 14.7 14.7 0 0 1-1.845 2.172 1 1 0 0 1-.69.276m-2.43-6.482a1 1 0 0 0-.156.012.82.82 0 0 0-.553.321 1.1 1.1 0 0 0-.137.839 3.5 3.5 0 0 0 1.607 2.16 11.4 11.4 0 0 0 1.466.925 11 11 0 0 0 1.072-1.329 3.42 3.42 0 0 0 .8-2.537c-.11-.641-.521-.98-1.062-.895a1.03 1.03 0 0 0-.715.511 1.02 1.02 0 0 1-.751.544 1 1 0 0 1-.873-.287 1.1 1.1 0 0 0-.698-.264m-37.237-.93a1 1 0 0 1-.817-.423 29 29 0 0 1-2.716-4.851c-.955-2.3-1.7-4.825-.682-7.654a5.37 5.37 0 0 1 2.541-3.06 4.6 4.6 0 0 1 3.706-.218 4.92 4.92 0 0 1 2.627 2.241 4.92 4.92 0 0 1 3.453-.057c2.6.935 3.749 3.671 2.731 6.506s-3.195 4.3-5.4 5.47a29 29 0 0 1-5.176 2.011 1 1 0 0 1-.267.035m.4-14.5a2.5 2.5 0 0 0-1.157.283 3.42 3.42 0 0 0-1.576 1.965c-.743 2.068-.278 3.979.648 6.213a25.7 25.7 0 0 0 2.105 3.87 25.6 25.6 0 0 0 4.088-1.646c2.135-1.133 3.709-2.312 4.453-4.379.646-1.8.033-3.388-1.525-3.949a3.1 3.1 0 0 0-2.672.349 1 1 0 0 1-1.57-.565 3.06 3.06 0 0 0-1.839-1.967 2.8 2.8 0 0 0-.952-.173z"/></svg>