<svg xmlns="http://www.w3.org/2000/svg" width="512" height="512" viewBox="0 0 64 64" xml:space="preserve"><path d="M60 21a1 1 0 0 0 0-2h-7v-6h7a1 1 0 0 0 0-2h-7V4a1 1 0 0 0-2 0v7h-6V4a1 1 0 0 0-2 0v7h-6V4a1 1 0 0 0-2 0v7h-6V4a1 1 0 0 0-2 0v7h-6V4a1 1 0 0 0-2 0v7h-6V4a1 1 0 0 0-2 0v7H4a1 1 0 0 0 0 2h7v6H4a1 1 0 0 0 0 2h7v6H4a1 1 0 0 0 0 2h7v6H4a1 1 0 0 0 0 2h7v6H4a1 1 0 0 0 0 2h7v6H4a1 1 0 0 0 0 2h7v7a1 1 0 0 0 2 0v-7h6v7a1 1 0 0 0 2 0v-7h6v7a1 1 0 0 0 2 0v-7h6v7a1 1 0 0 0 2 0v-7h6v7a1 1 0 0 0 2 0v-7h6v7a1 1 0 0 0 2 0v-7h7a1 1 0 0 0 0-2h-7v-6h7a1 1 0 0 0 0-2h-7v-6h7a1 1 0 0 0 0-2h-7v-6h7a1 1 0 0 0 0-2h-7v-6zM19 43h-6v-6h6zm0-16h-6v-6h6zm8 8h-6v-6h6zm-6-22h6v6h-6zm6 38h-6v-6h6zm8-8h-6v-6h6zm0-16h-6v-6h6zm8 8h-6v-6h6zm-6-22h6v6h-6zm6 38h-6v-6h6zm8-8h-6v-6h6zm0-16h-6v-6h6z" data-name="Layer 8" data-original="#000000"/></svg>