<svg xmlns="http://www.w3.org/2000/svg" width="512" height="512" viewBox="0 0 64 64" xml:space="preserve"><path d="M16.73 7.24a1 1 0 0 0-1 1v3.14a1 1 0 0 0 2 0V8.24a1 1 0 0 0-1-1M20.5 14a1 1 0 0 0 .71-.29l2.22-2.23A1 1 0 1 0 22 10l-2.23 2.22a1 1 0 0 0 0 1.42 1 1 0 0 0 .73.36m4.71 1.73h-3.14a1 1 0 0 0 0 2h3.14a1 1 0 0 0 0-2M22 23.43a1 1 0 0 0 1.41 0 1 1 0 0 0 0-1.41l-2.22-2.23a1 1 0 0 0-1.42 1.42zm-5.27-2.36a1 1 0 0 0-1 1v3.14a1 1 0 0 0 2 0v-3.14a1 1 0 0 0-1-1m-4.49-1.28L10 22a1 1 0 0 0 0 1.41 1 1 0 0 0 1.41 0l2.23-2.22a1 1 0 0 0-1.42-1.42zm-4-2.06h3.14a1 1 0 0 0 0-2H8.24a1 1 0 1 0 0 2M11.43 10A1 1 0 0 0 10 11.43l2.22 2.23A1 1 0 0 0 13 14a1 1 0 0 0 .71-.29 1 1 0 0 0 0-1.42zm35.84-2.76a1 1 0 0 0-1 1v3.14a1 1 0 1 0 2 0V8.24a1 1 0 0 0-1-1M51.05 14a1 1 0 0 0 .71-.29L54 11.43A1 1 0 0 0 52.57 10l-2.23 2.22a1 1 0 0 0 0 1.42 1 1 0 0 0 .71.36m.57 2.73a1 1 0 0 0 1 1h3.14a1 1 0 0 0 0-2h-3.14a1 1 0 0 0-1 1m.95 6.7a1 1 0 0 0 1.41 0A1 1 0 0 0 54 22l-2.22-2.23a1 1 0 1 0-1.42 1.42zm-5.3-2.36a1 1 0 0 0-1 1v3.14a1 1 0 0 0 2 0v-3.14a1 1 0 0 0-1-1m-4.48-1.28L40.57 22a1 1 0 0 0 0 1.41 1 1 0 0 0 1.41 0l2.23-2.22a1 1 0 0 0-1.42-1.42zm.14-3.06a1 1 0 0 0-1-1h-3.14a1 1 0 0 0 0 2h3.14a1 1 0 0 0 1-1M42 10a1 1 0 0 0-1.41 1.41l2.22 2.23a1 1 0 0 0 .71.29 1 1 0 0 0 .71-.29 1 1 0 0 0 0-1.42zM16.73 37.79a1 1 0 0 0-1 1v3.14a1 1 0 0 0 2 0v-3.14a1 1 0 0 0-1-1m3.77 6.71a1 1 0 0 0 .71-.29L23.43 42A1 1 0 1 0 22 40.57l-2.23 2.22a1 1 0 0 0 0 1.42 1 1 0 0 0 .73.29m4.71 1.77h-3.14a1 1 0 0 0 0 2h3.14a1 1 0 0 0 0-2m-4 4.07a1 1 0 1 0-1.42 1.42L22 54a1 1 0 0 0 1.41 0 1 1 0 0 0 0-1.41zm-4.48 1.28a1 1 0 0 0-1 1v3.14a1 1 0 0 0 2 0v-3.14a1 1 0 0 0-1-1m-4.49-1.28L10 52.57A1 1 0 0 0 10 54a1 1 0 0 0 1.41 0l2.23-2.22a1 1 0 1 0-1.42-1.42zm.14-3.07a1 1 0 0 0-1-1H8.24a1 1 0 0 0 0 2h3.14a1 1 0 0 0 1-1m-.95-6.7A1 1 0 0 0 10 42l2.22 2.23a1 1 0 0 0 .71.29 1 1 0 0 0 .71-.29 1 1 0 0 0 0-1.42zm35.84-2.78a1 1 0 0 0-1 1v3.14a1 1 0 0 0 2 0v-3.14a1 1 0 0 0-1-1m3.78 6.71a1 1 0 0 0 .71-.29L54 42a1 1 0 0 0-1.41-1.41l-2.23 2.22a1 1 0 0 0 0 1.42 1 1 0 0 0 .69.27m4.71 1.77h-3.14a1 1 0 0 0 0 2h3.14a1 1 0 0 0 0-2m-4 4.07a1 1 0 1 0-1.42 1.42L52.57 54A1 1 0 0 0 54 54a1 1 0 0 0 0-1.41zm-4.49 1.28a1 1 0 0 0-1 1v3.14a1 1 0 0 0 2 0v-3.14a1 1 0 0 0-1-1m-4.48-1.28-2.22 2.23a1 1 0 0 0 0 1.41A1 1 0 0 0 42 54l2.23-2.22a1 1 0 1 0-1.42-1.42zm-5-3.07a1 1 0 0 0 1 1h3.14a1 1 0 0 0 0-2h-3.14a1 1 0 0 0-1 1m4.21-6.7A1 1 0 0 0 40.57 42l2.22 2.23a1 1 0 0 0 .71.29 1 1 0 0 0 .71-.29 1 1 0 0 0 0-1.42zM32 25a1 1 0 0 0-1 1v2.21a1 1 0 0 0 2 0V26a1 1 0 0 0-1-1m2.65 5.35a1 1 0 0 0 .71-.3l1.56-1.56a1 1 0 0 0 0-1.41 1 1 0 0 0-1.41 0L34 28.64a1 1 0 0 0 0 1.41 1 1 0 0 0 .65.3M38 31h-2.25a1 1 0 0 0 0 2H38a1 1 0 1 0 0-2m-2.49 5.92a1 1 0 0 0 .71.3 1 1 0 0 0 .7-1.71L35.36 34A1 1 0 0 0 34 35.36zM32 34.75a1 1 0 0 0-1 1V38a1 1 0 1 0 2 0v-2.25a1 1 0 0 0-1-1M28.64 34l-1.56 1.56a1 1 0 0 0 .7 1.71 1 1 0 0 0 .71-.3l1.56-1.56A1 1 0 0 0 28.64 34m.61-2a1 1 0 0 0-1-1H26a1 1 0 0 0 0 2h2.21a1 1 0 0 0 1.04-1m-.76-4.92a1 1 0 0 0-1.41 0 1 1 0 0 0 0 1.41l1.56 1.56a1 1 0 0 0 1.41 0 1 1 0 0 0 0-1.41zM60 25a1 1 0 0 0-1 1v2.21a1 1 0 0 0 2 0V26a1 1 0 0 0-1-1m0 9.75a1 1 0 0 0-1 1V38a1 1 0 1 0 2 0v-2.25a1 1 0 0 0-1-1M56.64 34l-1.56 1.56a1 1 0 0 0 .7 1.71 1 1 0 0 0 .71-.3l1.56-1.56A1 1 0 0 0 56.64 34M53 32a1 1 0 0 0 1 1h2.21a1 1 0 0 0 0-2H54a1 1 0 0 0-1 1m3.49-4.92a1 1 0 0 0-1.41 0 1 1 0 0 0 0 1.41l1.56 1.56a1 1 0 0 0 1.41 0 1 1 0 0 0 0-1.41zM4 25a1 1 0 0 0-1 1v2.21a1 1 0 0 0 2 0V26a1 1 0 0 0-1-1m2.65 5.35a1 1 0 0 0 .71-.3l1.56-1.56a1 1 0 0 0 0-1.41 1 1 0 0 0-1.41 0L6 28.64a1 1 0 0 0 0 1.41 1 1 0 0 0 .65.3m.1 1.65a1 1 0 0 0 1 1H10a1 1 0 0 0 0-2H7.75a1 1 0 0 0-1 1m1.47 5.22a1 1 0 0 0 .7-1.71L7.36 34A1 1 0 0 0 6 35.36l1.56 1.56a1 1 0 0 0 .66.3M4 34.75a1 1 0 0 0-1 1V38a1 1 0 0 0 2 0v-2.25a1 1 0 0 0-1-1M38 59h-2.25a1 1 0 0 0 0 2H38a1 1 0 1 0 0-2m-9.75 0H26a1 1 0 1 0 0 2h2.21a1 1 0 0 0 0-2zm.24-3.92a1 1 0 0 0-1.41 0 1 1 0 0 0 0 1.41l1.56 1.56a1 1 0 0 0 1.41 0 1 1 0 0 0 0-1.41zM32 53a1 1 0 0 0-1 1v2.21a1 1 0 0 0 2 0V54a1 1 0 0 0-1-1m4.92 3.49a1 1 0 0 0 0-1.41 1 1 0 0 0-1.41 0L34 56.64a1 1 0 0 0 0 1.41 1 1 0 0 0 1.41 0zM35.75 5H38a1 1 0 0 0 0-2h-2.25a1 1 0 0 0 0 2m-.24 3.92a1 1 0 0 0 .71.3 1 1 0 0 0 .7-1.71L35.36 6A1 1 0 0 0 34 7.36zM32 6.75a1 1 0 0 0-1 1V10a1 1 0 0 0 2 0V7.75a1 1 0 0 0-1-1M28.64 6l-1.56 1.51a1 1 0 0 0 .7 1.71 1 1 0 0 0 .71-.3l1.56-1.56A1 1 0 0 0 28.64 6M26 5h2.21a1 1 0 0 0 0-2H26a1 1 0 0 0 0 2" data-original="#000000" data-name="Layer 6"/></svg>