<svg xmlns="http://www.w3.org/2000/svg" width="512" height="512" viewBox="0 0 64 64" xml:space="preserve"><path d="M58.93 40.63a1 1 0 0 0-.56-.56l-5-2a1 1 0 0 0-.74 0l-5 2a1 1 0 0 0-.56.56L46 43.39l-1-2.34 1.79-4.19L51 35.07l4.56 2a1 1 0 0 0 .78-1.84l-4.95-2.12a1 1 0 0 0-.78 0l-5 2.12a1 1 0 0 0-.53.53L43 40.66a1 1 0 0 0 0 .78l1.17 2.73-2.36-.94L40.08 39l1.69-4.23 4.6-1.84 5-2a1 1 0 0 0 .56-.56l2-5a1 1 0 0 0 0-.74l-2-5a1 1 0 0 0-.56-.56L48.61 18 51 17l4.19 1.79L56.93 23l-2 4.56a1 1 0 0 0 1.84.78l2.12-4.95a1 1 0 0 0 0-.78l-2.12-4.95a1 1 0 0 0-.53-.53L51.34 15a1 1 0 0 0-.78 0l-2.73 1.17.94-2.36L53 12.08l4.23 1.69 1.84 4.6a1 1 0 0 0 1.86-.74l-2-5a1 1 0 0 0-.56-.56l-5-2a1 1 0 0 0-.74 0l-5 2a1 1 0 0 0-.56.56L46 15.39l-1-2.34 1.79-4.19L51 7.07 55.51 9a1 1 0 1 0 .78-1.84l-4.95-2.1a1 1 0 0 0-.78 0l-5 2.12a1 1 0 0 0-.53.53l-2.12 5a1 1 0 0 0 0 .78l1.17 2.73-2.36-.94L40.08 11l1.69-4.23 4.6-1.84a1 1 0 0 0-.74-1.86l-5 2a1 1 0 0 0-.56.56l-2 5a1 1 0 0 0 0 .74l2 5a1 1 0 0 0 .56.56L43.39 18l-2.34 1-4.19-1.79-1.79-4.19 2-4.56a1 1 0 0 0-1.84-.78l-2.12 5a1 1 0 0 0 0 .78l2.12 5a1 1 0 0 0 .53.53l4.9 2.01a1 1 0 0 0 .78 0l2.73-1.17-.94 2.36L39 23.92l-4.23-1.69-1.84-4.6-2-5a1 1 0 0 0-.56-.56l-5-2a1 1 0 0 0-.74 0l-5 2a1 1 0 0 0-.56.56L18 15.39l-1-2.34 1.79-4.19L23 7.07 27.51 9a1 1 0 1 0 .78-1.84l-4.95-2.1a1 1 0 0 0-.78 0l-4.95 2.12a1 1 0 0 0-.53.53l-2.12 5a1 1 0 0 0 0 .78l1.17 2.73-2.36-.94L12.08 11l1.69-4.23 4.6-1.84a1 1 0 1 0-.74-1.86l-5 2a1 1 0 0 0-.56.56l-2 5a1 1 0 0 0 0 .74l2 5a1 1 0 0 0 .56.56L15.39 18l-2.34 1-4.19-1.76-1.79-4.19L9 8.49a1 1 0 1 0-1.84-.78l-2.12 5a1 1 0 0 0 0 .78l2.12 5a1 1 0 0 0 .53.53l5 2.12a1 1 0 0 0 .78 0l2.73-1.17-.94 2.36L11 23.92l-4.23-1.69-1.84-4.6a1 1 0 1 0-1.86.74l2 5a1 1 0 0 0 .56.56l5 2a1 1 0 0 0 .74 0l5-2a1 1 0 0 0 .56-.56L18 20.61 19 23l-1.79 4.19-4.19 1.79L8.49 27a1 1 0 0 0-.78 1.84l5 2.12a1 1 0 0 0 .78 0l5-2.12a1 1 0 0 0 .53-.53L21 23.34a1 1 0 0 0 0-.78l-1.17-2.73 2.36.94L23.92 25l-1.69 4.23-4.6 1.84-5 2a1 1 0 0 0-.56.56l-2 5a1 1 0 0 0 0 .74l2 5a1 1 0 0 0 .56.56L15.39 46l-2.34 1-4.19-1.76-1.79-4.19L9 36.49a1 1 0 1 0-1.84-.78l-2.1 4.95a1 1 0 0 0 0 .78l2.12 5a1 1 0 0 0 .53.53l5 2.12a1 1 0 0 0 .78 0l2.73-1.17-.94 2.36L11 51.92l-4.23-1.69-1.84-4.6a1 1 0 1 0-1.86.74l2 5a1 1 0 0 0 .56.56l5 2a1 1 0 0 0 .74 0l5-2a1 1 0 0 0 .56-.56L18 48.61 19 51l-1.79 4.19-4.19 1.79L8.49 55a1 1 0 1 0-.78 1.84l5 2.12a1 1 0 0 0 .78 0l5-2.12a1 1 0 0 0 .53-.53L21 51.34a1 1 0 0 0 0-.78l-1.17-2.73 2.36.94L23.92 53l-1.69 4.23-4.6 1.84A1 1 0 0 0 18 61a1 1 0 0 0 .37-.07l5-2a1 1 0 0 0 .56-.56l2-5a1 1 0 0 0 0-.74l-2-5a1 1 0 0 0-.56-.56L20.61 46 23 45l4.19 1.79L28.93 51 27 55.51a1 1 0 0 0 .53 1.31 1 1 0 0 0 .39.08 1 1 0 0 0 .92-.61l2.12-4.95a1 1 0 0 0 0-.78l-2.12-5a1 1 0 0 0-.53-.53L23.34 43a1 1 0 0 0-.78 0l-2.73 1.17.94-2.36L25 40.08l4.23 1.69 1.84 4.6 2 5a1 1 0 0 0 .56.56l5 2a1 1 0 0 0 .74 0l5-2a1 1 0 0 0 .56-.56L46 48.61 47 51l-1.79 4.19-4.19 1.79-4.56-2a1 1 0 0 0-.78 1.84l4.95 2.12a1 1 0 0 0 .78 0l5-2.12a1 1 0 0 0 .53-.53L49 51.34a1 1 0 0 0 0-.78l-1.17-2.73 2.36.94L51.92 53l-1.69 4.23-4.6 1.84a1 1 0 0 0 .74 1.86l5-2a1 1 0 0 0 .56-.56l2-5a1 1 0 0 0 0-.74l-2-5a1 1 0 0 0-.56-.56L48.61 46 51 45l4.19 1.79L56.93 51l-2 4.56a1 1 0 0 0 1.84.78l2.12-4.95a1 1 0 0 0 0-.78l-2.12-5a1 1 0 0 0-.53-.53L51.34 43a1 1 0 0 0-.78 0l-2.73 1.17.94-2.36L53 40.08l4.23 1.69 1.84 4.6a1 1 0 0 0 1.86-.74ZM39 51.92l-4.23-1.69-1.84-4.6-2-5a1 1 0 0 0-.56-.56l-5-2a1 1 0 0 0-.74 0l-5 2a1 1 0 0 0-.56.56L18 43.39l-1-2.34 1.79-4.19L23 35.07l4.56 2a1 1 0 1 0 .78-1.84l-4.95-2.12a1 1 0 0 0-.78 0l-4.95 2.12a1 1 0 0 0-.53.53L15 40.66a1 1 0 0 0 0 .78l1.17 2.73-2.36-.94L12.08 39l1.69-4.23 4.6-1.84 5-2a1 1 0 0 0 .56-.56l2-5a1 1 0 0 0 0-.74l-2-5a1 1 0 0 0-.56-.56L20.61 18 23 17l4.19 1.79L28.93 23 27 27.51a1 1 0 0 0 .53 1.31 1 1 0 0 0 .39.08 1 1 0 0 0 .92-.61l2.12-4.95a1 1 0 0 0 0-.78l-2.12-4.95a1 1 0 0 0-.53-.53L23.34 15a1 1 0 0 0-.78 0l-2.73 1.17.94-2.36L25 12.08l4.23 1.69 1.84 4.6 2 5a1 1 0 0 0 .56.56l5 2a1 1 0 0 0 .74 0l5-2a1 1 0 0 0 .56-.56L46 20.61 47 23l-1.79 4.19-4.19 1.79L36.49 27a1 1 0 0 0-.78 1.84l4.95 2.12a1 1 0 0 0 .78 0l5-2.12a1 1 0 0 0 .53-.53L49 23.34a1 1 0 0 0 0-.78l-1.17-2.73 2.36.94L51.92 25l-1.69 4.23-4.6 1.84-5 2a1 1 0 0 0-.56.56l-2 5a1 1 0 0 0 0 .74l2 5a1 1 0 0 0 .56.56L43.39 46l-2.34 1-4.19-1.79-1.79-4.19 2-4.56a1 1 0 0 0-1.84-.78l-2.12 4.95a1 1 0 0 0 0 .78l2.12 5a1 1 0 0 0 .53.53l4.9 2.06a1 1 0 0 0 .78 0l2.73-1.17-.94 2.36Z" data-name="Layer 41" data-original="#000000"/></svg>