<svg version="1.0" xmlns="http://www.w3.org/2000/svg" width="300" height="300" viewBox="0 0 225 225"><path d="M4.2 3.7C2.4 9.8 2.1 12 3.1 12c.5 0 .9-.5.9-1.2s.7-.5 1.8.5c1.7 1.5 2 1.5 5.2-.5 1.9-1.2 4.4-2.8 5.5-3.5 3.8-2.3 8-4 11.8-4.7C36 1.2 31.8 0 18.7 0H5.3zm43.2-2.5c-.4.5-2.2 1.6-4 2.4-1.9.8-3.4 2.1-3.4 2.9S39.6 8 39.1 8s-1.3 1-1.6 2.2c-1.5 5-6.5 8-12.2 7.4-5.7-.5-7 .3-5.3 3.3 1.2 2.4-1.3 6.1-4.3 6.1-1 0-2.9 1.1-4.2 2.4s-3 2.4-3.7 2.3c-5.9-.2-7.8.4-7.8 2.4C0 37.3 9 43 14 43c3 0 6.2 4.8 4.9 7.2-.9 1.7-1.8 1.9-5.7 1.4-7-.9-7.5-.8-10.4.3L0 53v70.8l4 .7c2.2.4 4 1.2 4 2 0 .9-1 1-4 .5l-4-.7v8.7l2.8-1.7c1.5-.9 4.1-2.7 5.7-3.9 1.7-1.2 5.4-3.2 8.4-4.4 3-1.1 7.7-3.6 10.5-5.5 7.8-5.2 8.9-5.4 22.5-4.4 11.6.9 12.4.8 15.2-1.2 2.4-1.7 2.8-2.4 1.8-3.5-2.2-2.7-3.8-12.4-3.2-19.6l.6-7.1-2.9.6c-1.6.4-5.1 1.2-7.9 1.8-2.7.7-6 1.2-7.2 1.1-1.3 0-2.3.4-2.3.9s-.7.9-1.5.9c-2.9 0-6.7 4.3-6 6.8.3 1.4.2 2.1-.4 1.8-.5-.3-1.1-.2-1.3.4-.4 1.3-4.1 2-5.6 1.1-.7-.4-1.3-2.4-1.4-4.5l-.3-3.8-8 .4c-9.5.4-11.8-1.8-9.7-9.1.6-2 .8-5.5.5-7.7-.6-4.6-.3-5.3 4.7-11.5 6.8-8.4 7.1-8.6 13.8-9.3 5.1-.6 6.3-.4 6.8.8.3.9 1.5 1.6 2.6 1.6 1.8 0 2-.5 1.5-3.7-.8-4.6.3-15.3 1.5-15.3.5 0 .8 1.7.7 3.8q-.75 10.65 7.5 2.7l3.7-3.5 2.9 2.2c1.7 1.2 3 2.4 3 2.7s1 2.2 2.1 4.1c2 3.2 2.2 3.3 3.5 1.5.8-1 1.4-2.2 1.4-2.6C66 46.6 55.7 37 54.2 37c-1.8 0-6.3-3.5-5.5-4.4.3-.3-.3-.6-1.4-.6-5 0-4.8-12.3.2-17.9C49.4 12 51 9.8 51 9.3s1.5-1.7 3.3-2.5c10.9-5.3 12.7-6 14-5.5 1.8.7 2.3 15.3.6 17.4-1.2 1.4-.8 6 1.1 10.7l1.1 2.9 3.5-5.4c2-3 4-5.5 4.4-5.7.5-.2-.5-1.6-2.2-3.1l-3.1-2.8 1.6-4.8c1-2.7 1.7-6.1 1.7-7.7V-.1L62.5.1c-8.6 0-14.7.5-15.1 1.1M15.1 99.7c.5 1.3.9 3.9.9 5.7 0 1.9.6 3.9 1.4 4.5 4.7 3.9-3.4 13.6-9.4 11.1-4.7-2-6.8-14.2-3.3-20 3-5.2 8.6-5.9 10.4-1.3"/><path d="M144.7 2c.6 2.2 4.3 3.6 6.8 2.6 1.3-.5 2 .5 1.6 2.6 0 .5.4.8.9.8.6 0 1 .4 1 1 0 .5-1.4 1-3.1 1s-3.7.7-4.6 1.5c-1.4 1.4-1.7 1.4-3.3 0-1.3-1.1-2.8-1.3-6.5-.8-3.5.4-4.6.3-4.1-.5.4-.7 1.4-1.2 2.2-1.2s1.3-.4.9-.9c-.5-1-6.9-.6-16.5.8-5.1.8-8.2.4-5.2-.6 2-.8 1.3-2.5-.8-1.9-1.1.3-2.9.8-3.9 1.1-1.6.5-1.8.2-1.4-1.5.3-1.2 0-2-.6-2-1.6 0-6.1 4.9-6.1 6.6s-1.6 1.8-2.5.3c-.4-.6-1.3-.8-2-.5-.8.3-1.5 0-1.8-.7-.2-.6-1.6 1-3.1 3.6-2.9 5-2.9 10.2 0 11.4 2 .7 1.7 2.5-.3 2.2-3.5-.3-4.3.1-4.3 2.2 0 1.2-.4 1.7-1.1 1.4-3.1-2-6.6 1.6-7.9 7.8-.7 3.4-1.8 7.3-2.5 8.7-1.7 3.4-3.6 14.8-3.1 18.5.2 1.6.1 3.4-.3 4-1 1.7-.7 7.5.5 7.5.6 0 2.4 1.2 3.9 2.7 2.4 2.5 2.7 2.5 2.5.8-.4-3.4 0-4.6 1.1-3.9.6.3.9 1.5.6 2.5s-.1 2.2.4 2.5c.9.5.7 1.8-1.2 9.4-.8 3.5-1 3.6-5.6 3.5h-4.8l.1 3.5c.1 1.9.6 5.7 1.2 8.5.6 3.2.7 5.6.1 6.7-.8 1.4-.6 1.8.9 1.8 1.2 0 2.2 1.2 3.1 3.5.7 1.9 1.7 3.5 2.2 3.5 1.6 0 12.9 10.1 12.9 11.5 0 .7.9 2.4 2 3.7 1 1.4 1.7 2.8 1.4 3.1s.6 1.3 2 2.2c3.6 2.4 3.6 7 0 7.9-1.9.5-3.3.1-4.9-1.4-1.2-1.1-2.4-1.8-2.7-1.4-1.2 1.1.3 9.9 1.8 11 1.2 1 1.2 1.3.2 1.7-1.1.3-1.1.8 0 2.6 1 1.8 1 2.1-.5 2.1-1 0-3.4.3-5.4.6l-3.7.6-.3-7.9c-.3-5.9-.9-8.4-2.1-9.7-1-1-1.8-2.2-1.8-2.7 0-.6-.7-1.7-1.5-2.5-.8-.9-2-3.6-2.6-6-1.2-4.8-3.3-6.5-7.4-6.2-2.2.2-2.4.4-1.1 1.4.9.6 1.6 2.4 1.6 4 0 2 1.2 4.2 4 7.2 2.2 2.3 4 4.9 4 5.7 0 .9.6 2.6 1.4 3.8s1.6 5.5 1.9 9.5c.5 7.5-1.5 11.2-5.9 11.2-1.8 0-2.4 1.3-1.3 3 .8 1.3 1 1.3 1.8.1.8-1.3 1.3-1.1 2.8.7 1.1 1.4 3.1 2.3 5.3 2.5 3.6.3 8.9 6.1 9 9.9 0 .9.5 2 1 2.3 1.6 1 1.2 4.8-.4 4.2-.8-.3-2.2.1-3.3.8-1.7 1.3-1.7 1.4 0 1.5.9 0 1.7.4 1.7 1 0 .5-.7.7-1.5.4-1.9-.8-1.9.5 0 3 2.3 3 1.8 4.4-1.2 4-1.6-.2-2-.1-1 .2 2 .6 2.3 2 .5 2.6-.8.3-.4.9 1 1.7 3.1 1.6 2.8 3.1-.7 3.1-3.1 0-4.6-2.1-2.8-3.9.8-.8.7-1.1-.5-1.1-1.3 0-1.8 1.1-2 4.8-.3 4.4-.5 4.7-3 4.7-1.6-.1-2.8.2-2.8.7 0 .4-1.2 0-2.7-.8-1.6-.7-3.8-1.4-5-1.4-1.3 0-2.3-.4-2.3-.9s-1.2-1.2-2.7-1.6C56 214.2 51 206.4 51 199.6c0-1.8-.4-3.6-.9-4.2-1-1-2-13.4-1.1-13.4.3 0 1.2 2.4 2 5.2l1.4 5.3 1.4-6c.9-3.3 1.6-5.5 1.7-5 .7 3.1 3 10.1 3.5 10.5 1.1.9 4 9.5 4 11.7 0 3.5 5.5 6 8.9 3.9 1-.6 1.2-.5.7.2-.4.6.3 3.1 1.6 5.4 1.2 2.4 2.1 4.7 1.9 5.2-.1.5.5.3 1.4-.4 1.2-1 1.3-1.5.4-2.1-.9-.5-1-1.1-.2-2.1 2.1-2.7 2.2-5.8.3-5.8-4 0-3.6-7.9.3-8.1 1.2-.1.3-.6-2-1.2-2.6-.6-4.3-1.6-4.3-2.4s-.5-1.1-1-.8c-1 .6-1.4-.7-1.1-3.2.1-.7-.7-2.6-1.9-4.3-1.1-1.6-2.9-4.3-4-5.9-1-1.6-2.1-4.2-2.3-5.7-.4-3.6-5-4.7-7.3-1.7-1.2 1.6-1.3 1.3-1.4-3.3 0-7.7-4.7-11.6-13.5-11.2-3.5.2-6.1.6-5.9 1s-.6 1-1.8 1.3c-1.3.4-3 1.4-4 2.2-.9.8-2.2 1.5-3 1.7-2.1.3-6.8 5.2-6.8 7 0 1-.5 1.4-1.1 1.1-.6-.4-1-.1-.8.6.5 3.7-.2 4.7-3.7 5.3-1.9.4-4.3 1-5.2 1.3-1.4.5-1.5.3-.4-.8 2-2.2 1.4-2.9-2.8-2.9-3.6 0-4 .2-4 2.6 0 2.3.3 2.6 2.5 2.2 1.4-.3 2.5-.1 2.5.4 0 .4 1 .7 2.3.5 1.2-.2 1.7-.2 1 0-2.2.8-.1 3.3 2.7 3.3q4.95 0 3 3c-.5.8-2.5 1.3-5.2 1.2-3.2 0-3.8.2-2.3.8 1.6.7 1 .9-2.2.9-5.1.1-6.2 3.7-2 6 1.2.7 2.3 2 2.4 2.9.4 5.6 3.3 8.8 3.3 3.8 0-2.4.4-2.6 4-2.6 2.9 0 4-.4 4-1.5 0-.8 1.8-2.4 4-3.5 4.5-2.3 4.7-2.7 2.2-4.6-1.6-1.3-1.6-1.3.1-1.4 1 0 1.7-.8 1.7-1.9s.4-2.2.9-2.6c.5-.3 1.5-3 2.1-6 .8-3.7 1.7-5.6 3-6 1-.3 3.5-2.6 5.5-5.1 4.5-5.4 4.9-5.3 3 .9-.8 2.6-1.1 4.7-.7 4.7.4.1-.5.8-2 1.6-3.2 1.7-3.6 3.8-1.1 5.2 1.4.9 1.4 1-.5 1.6-3.2 1-2.7 2.1 2.1 5.1l4.2 2.7.3 7.9c.2 6.4 0 8-1.2 8.5-3.3 1.3-1.8 4.3 2.7 5.4 7.3 1.9 7.4 1.9 3.2 4.4-2.9 1.8-4.8 2.3-7.4 1.8-3-.4-3.3-.3-2.8 1.2.4 1 .7 2 .7 2.2 0 2.5 9.7-1.5 12.1-4.9.4-.5.9.7 1.3 2.7l.7 3.6h25.4c27.6 0 28.5-.1 28.5-3.6 0-1.2.6-2.7 1.3-3.1s2-2 3-3.6c1-1.5 2.2-2.7 2.8-2.7.5 0 2.1-1.1 3.5-2.5s2.9-2.5 3.4-2.5c1.5 0 1.2 3.6-.4 4.9-.8.7-1.7 2.4-2.1 3.9-.3 1.5-1.5 3.8-2.6 5.2-1.4 1.8-1.7 2-1.2.6.6-1.7.3-1.7-2.5.4-1.8 1.3-3.2 2.5-3.2 2.7s5.6.3 12.5.3H131v-4.4c0-3.8.3-4.5 2.5-5 1.4-.4 2.4-1 2.4-1.4-1.8-11.6 4.3-5.6 7.4 7.3.3 1.2.5.5.6-1.7.1-3 .8-4.2 4-6.7 4.2-3.4 5.1-3.2 5.1 1.1 0 1.7.4 2.7 1 2.3.6-.3 1-2.8 1-5.5s.5-5.2 1-5.5c.6-.3 1-1.7 1-3.1 0-2.3.2-2.4 1.5-1 .8.8 1.5 2.7 1.5 4.3l.1 2.8 1.4-2.5c.8-1.4 1.4-3.3 1.5-4.3 0-.9.7-1.7 1.5-1.7s1.5-.8 1.6-1.8c0-1.4.2-1.4.9.3.6 1.3.9 1.5.9.5.2-2.8 4.6-11 6.4-11.6.9-.3 1.7-1.2 1.7-2s.5-1.4 1.2-1.4c.9 0 .9-.3 0-1.2-1-1-1.7-1-3.2 0-2.6 1.6-2.7 1.5-4-.8-1.1-2 .5-6 2.4-6 .5 0 2.9-2 5.3-4.5 2.5-2.4 5.3-4.7 6.4-5 4.1-1.3 1.9-2.8-3.1-2.1-6.1.8-6.5-.5-.8-3.2 2.9-1.5 4.6-1.8 5.9-1.2 2.6 1.4 3.1 1.2 2.4-1-.8-2.4 1.3-2.7 5.4-.6 2.9 1.5 10.1 9.7 10.1 11.4 0 .6 1.2 2.4 2.6 4.1 3.5 4.2 1.3 11.6-2.4 7.9-.9-.9-1.2-.8-1.2.5 0 2.4-1.7 2.1-2.5-.4-1.3-4-7.1-8.9-10.5-8.9-3.5 0-7 1.5-7 3.1 0 .6.5.7 1 .4.7-.4.8.3.4 2.2-.4 1.5-1.3 3.2-2.1 3.6-.7.4-1.3 1.6-1.3 2.6s-.7 2.4-1.5 3.1-1.5 1.9-1.5 2.6c0 .8-.4 1.4-1 1.4-.5 0-1 1-1 2.2 0 1.3-.7 3.2-1.5 4.2-.8 1.1-1.5 3-1.5 4.2s-.7 2.5-1.6 2.8c-1 .4-1.4 1.2-1 2.3.4.9 0 2.3-.7 3.2-1.5 1.8-3.7 8.8-3.7 11.8 0 1.6.7 1.9 5 2 3.6 0 5-.3 5-1.3 0-.8.5-1.4 1.1-1.4s.9.7.5 1.5c-.7 2.1 0 1.9 6.8-1.5 5.1-2.5 9-3.3 6.1-1.2-4.6 3.2-3.7 4 5 4.1l8.6.2-3.1-4c-3.7-4.6-3.7-7.8 0-7.3 7.1 1 18.9.6 21.4-.7 3-1.7 3.9-8.1 1.1-8.1-.8 0-1.5-.7-1.5-1.5s.6-1.5 1.3-1.5c.8 0 1.4-1.5 1.5-3.7l.3-3.6-4.2 4.1c-4.7 4.8-5.3 5-4.4 2.1.6-1.8.4-1.9-1.2-1.1-1.6.9-1.9.7-1.8-1.6 0-1.7-.6-2.8-1.7-3-1.4-.3-1.8.3-1.8 2.2 0 2.1-.5 2.6-2.7 2.7-2.4.2-2.5.2-.5.6 4.3.8 2.4 2.6-2.1 1.9-5.2-.8-9.8.4-5.7 1.4 2.5.7 2.5.7-1 2.3-1.9.9-4.7 2.5-6.1 3.4-6.8 4.6-8.4 5.8-8.9 6.4-.3.4-1.8 1.1-3.3 1.4-1.5.4-3 1.1-3.3 1.6-1 1.6-4.2.9-4.7-1-.6-2.6 2.7-7.9 5.8-9.3 3-1.4 3.4-4.8.5-4.8-1.1 0-2-.7-2-1.5 0-1.9 1.4-1.9 3.4 0 .8.8 2.2 1.5 3 1.5.9 0 1.6.7 1.6 1.6 0 1.4.3 1.4 1.5.4 3.2-2.6 2.6 0-.6 2.9-2 1.9-2.8 3.1-1.9 3.1.8 0 2.9-1.3 4.5-2.9 1.7-1.5 4-3.3 5.2-4 1.2-.6 2-1.7 1.8-2.4-.2-.6 2-3.9 5-7.1 3-3.3 5.7-7.2 6-8.8.4-1.6 1.3-2.8 2.2-2.8.8 0 2.4-1.1 3.4-2.4 1.9-2.5 6.5-4 7.5-2.4.9 1.4 2.6-.3 2-1.9-.4-.9.1-1.7 1.4-2 7.7-2-3.2-19.1-20.2-31.7-11.3-8.4-13.8-11.6-13.7-17.4.2-7.8 1.2-10.7 3.4-10.5 2.7.4 3.8-.6 5-4.2.6-1.7 2-3.4 3.2-4 1.2-.5 2.3-1.8 2.5-2.8s.7-1.6 1.3-1.5c.5.2.9.6.8 1-.2.5.2.8.8.8s.8-.9.4-2c-1-3.3.4-5.9 4.3-7.7 5.8-2.7 7.8-6.6 6.4-12.8-.8-3.2-3.4-4.2-8.2-2.9l-2.5.7 3 1.3c2.7 1.2 2.8 1.3.7 1.4-1.3 0-3.2.5-4.3 1.1-1.1.5-8.6 1.2-16.7 1.4s-15.8.8-17.2 1.3c-2.6 1-5 .6-5-.8 0-.4 1.3-1 2.9-1.3s3.7-1.4 4.7-2.4c1.2-1.2 3.2-1.8 6-1.7 2.7.1 4.1-.3 3.7-.9q-.45-.9.6-.3c.6.4 2.3 0 3.7-.9s3.3-1.3 4.4-1c1.1.4 3.5.2 5.2-.4 1.8-.6 5-1.3 7.1-1.6 3.1-.5 3.7-.9 3.2-2.3-.4-.9-.9-5.6-1-10.3-.5-15.6-2.1-20.4-4.9-15.2l-1.5 2.8-.1-4.5c0-3.6-.6-5.1-3-7.4-3.7-3.6-3.9-1.9-.6 4.9 1.8 3.5 2.2 5.3 1.4 6.2-.7.9-.6 1.4.6 1.9 2.4.9 1.9 2.2-.7 1.7-2.1-.4-2.4-1.1-2.6-5.1-.1-2.6-.6-4.9-1.1-5-.6-.2-1-1.1-1.1-2 0-1.1-.2-1.2-.6-.5-.2.7-1 1.3-1.5 1.3-.6 0-.9-.3-.6-.6s-.5-1.7-1.8-3.1-2.4-3.2-2.4-3.9c0-.8-.7-1.4-1.5-1.4s-1.5-.8-1.5-1.8c0-1.5.2-1.5 1.1-.2.8 1.2.9 1 .7-.9-.2-1.4-.8-2.6-1.3-2.8-1.5-.5-3.7 5.1-2.9 7.2.5 1.1.4 1.6-.3 1.2-.5-.3-2.7-.2-4.8.4-2.8.8-4 .8-4.5-.2-.5-.6-1.5-.9-2.4-.6-.8.3-1.8.2-2.1-.2-.8-1.4 2.6-2.2 4.1-1 1.8 1.5 4.9.3 7.4-2.8 2.6-3.4 2.5-4.7-.5-6.1-2.2-1-2.5-.9-2.5.8 0 2-4.3 4.5-6 3.5-.4-.3-1.3.2-2 1s-1.7 1.2-2.2.9c-.6-.4-1.5 0-2 .7-.7 1-1.1 1.1-1.4.2-.3-.7-1.1-1-1.7-.7-.7.2-2.3-.5-3.5-1.6-1.8-1.7-2.2-1.8-2.2-.5 0 .8-1.3 2.3-3 3.4-3.3 2-3 3.1.9 3.1h2.5l-2.3 1.6c-3 2.2-5 .3-5.8-5.5-.5-3.5-2.3-6-2.3-3.1 0 .5-.4 1-1 1-1.7 0-1.1-1.8.9-2.5 1.2-.3 1.9-1.5 1.9-3.1 0-1.8-.3-2.2-.9-1.3-1.1 1.9-1.9.7-1.2-1.9.5-2.2 2.3-3.1 2.3-1.2 0 .5.5 1 1.1 1s.9-.7.5-1.5c-.3-.9.3-2 1.4-2.7s2-2 2-2.8c0-1.1.2-1.2.8-.3.4.7 2.7 1.5 5 1.9 5.8.9 5.8 1.6.5 4.4l-4.6 2.4 3.2 1.3c3.8 1.6 6.3.6 3.6-1.4-1.4-.9-1.5-1.3-.4-1.3.8 0 2.5.9 3.9 2s3.6 2 4.9 2c2 0 2.1.2 1.1 1.5-1 1.2-.9 1.5.8 1.5 2.4 0 3.4-3.1 1.5-4.8-2-1.9-1.8-4.9.2-3.2 2.4 2 2.7.6.5-1.8-2.3-2.5-2.6-3.6-.6-2.9.8.3 1.6-.2 1.9-1.4.4-1.6.2-1.9-1.4-1.4-1.1.4-1.9.2-1.9-.5 0-.6-.4-.8-1-.5-.5.3-1.9.1-3-.5-1.3-.7-2-.7-2 0 0 .5.6 1 1.4 1 .7 0 2 .7 2.7 1.6 1.2 1.5 1.1 1.6-1.1.8-1.4-.4-3.8-.8-5.3-.9-3.4 0-5.5-2.9-3.7-5.1 1-1.1 1-1.7 0-2.8-.9-1.2-.5-1.6 2.7-2.1 5.5-.9 6.5-1.4 5.8-2.5-.9-1.5-16.2-1.3-16.9.2-.5 1-.7 1-1.2 0-1-2.1-4.3-1.5-3.7.8m-35.2 12.4c-1.1.8-2.5 1.2-3.1.9-.7-.2-1.5.1-1.9.6-.3.6-1 .9-1.4.6-1.9-1.1-4.4 3.3-2.8 5 2.1 2 9.7 2.1 9.7 0 0-1.9.9-1.9 3.2.2 2.2 2 3.6 1 1.7-1.3-1.2-1.5-1-1.5 2.6 0 2.8 1.1 3.5 1.2 2.3.2-2.9-2.1-2.1-2.5 3.4-1.9 3.7.5 4.9.3 4.4-.5-.4-.7-1.9-1.2-3.4-1.2-3.4 0-7.2-1-7.2-1.9 0-.8 4.6-2.8 8.5-3.7 2.9-.6 2.9-.6 1 .9-1.1.9-2.5 1.7-3.2 1.7-.6 0-1.5.5-1.9 1.2-.5.8.2.9 2.3.5 4-.8 10.9.3 9.2 1.4-1 .6-.7 1.1 1.1 1.7 3 1.2 4 .7 4-1.9 0-1.2.7-1.9 1.9-1.9 1.1 0 2.1-.5 2.3-1.2.3-.7 1.1-.9 2.4-.4 1.2.6 1.5 1 .7 1.3-.7.3-1.3.9-1.3 1.3 0 1.3-4.6 6-5.9 6-.6 0-1.1.5-1.1 1 0 .6-1.2 1.5-2.7 2.1l-2.8 1 2.4 1.8c1.5 1.2 2.2 2.4 1.8 3.4-.8 2 4.8 8.1 6.7 7.4.8-.3 1.7.1 2 .9 1.1 2.8.6 3.6-1 1.9-1.2-1.2-1.9-1.3-3-.4-.8.6-2.6.8-4.4.4-1.9-.4-3-.3-3 .4 0 .6.9 1.1 2 1.1s2 .5 2 1.1 1.1.8 2.8.4c2-.4 3.3-.1 4.2 1 .7.8 2.1 1.5 3.2 1.5 1.4 0 1.8.5 1.4 1.5-.8 2.3 2 1.8 4.4-.7 1.8-1.9 2.3-2.1 4.1-1 2.7 1.7 6.5.6 4.8-1.4-.6-.8-2.2-1.4-3.5-1.4-1.2 0-2.6-.5-3-1.2-.5-.8.5-.9 3.6-.5 2.3.3 5.3.1 6.6-.4 1.4-.5 2.4-.5 2.4 0s2.1 1.9 4.8 3.2c5 2.4 7.8 4.9 8.7 8 .4 1.1 1.1 1.7 1.6 1.4 1.8-1.2 8.1 2.8 9.7 6.2.9 1.8 2.1 3.3 2.8 3.3.6 0 1.4.7 1.8 1.5.8 2.3 2.6 1.8 2.6-.8 0-2.8-1.3-4.6-6.5-8.3-2.2-1.6-4.5-3.5-5-4.2-.6-.7-2.3-1.4-3.9-1.5-3.3-.3-4.6-2.4-2.2-3.3 1.1-.4 1.4-1.3 1.1-2.5-.4-1.1 1.9.6 4.9 3.7 3.1 3.2 5.6 6 5.6 6.5 0 .4 1.4 1.2 3 1.8 1.7.5 3 1.5 3 2.1 0 3.4 2-.8 2.1-4.3l.1-4.2 1.3 3c1.4 3.1 1.1 5-1.3 7.7-1.3 1.6-1.3 2 .2 4.2 2 3.1 2 4 .2 3.3-1-.4-1.2 0-.8 1.5.4 1.7.2 1.8-1.4 1-5.1-2.5-9.2-4.2-11.7-4.8-1.5-.3-3-1-3.3-1.6-.3-.5-1.6-.2-3.1.7-2.4 1.6-9.4 1.4-11.8-.5-.5-.4-2.7-1-4.8-1.3s-5.1-1.7-6.7-3c-1.6-1.4-3.5-2.7-4.2-3-.7-.2-1-.8-.6-1.2s2.8.1 5.3 1c6.5 2.5 8.2.5 2.1-2.4-2.5-1.1-5.2-2.1-5.9-2.1s-1.8-.5-2.5-1.2c-.9-.9-1.2-.8-1.2.5 0 2.1-2 1.2-5.7-2.3-1.3-1.1-2.3-1.7-2.3-1.1 0 1.3-7.1-1-7.7-2.6-.3-.8-2.1-1.3-4.7-1.2l-4.1.1 4.3 1.1c2.3.5 4.2 1.3 4.2 1.8 0 .4 1.5 1.1 3.3 1.4 1.7.4 4.8 2 6.8 3.6s4.4 2.9 5.2 2.9c.9 0 1.4.7 1.2 1.7s-.4 2.2-.4 2.6c-.1.4-1 .3-2-.3-2.5-1.3-4.4-1.3-3.6 0 .3.5.2 1-.2 1-1.9 0-11.3-3.7-10.8-4.2.3-.3-.5-.8-1.9-1.2-1.4-.3-2.7-1.5-3.1-2.5-.6-1.9-6.7-4.7-9.1-4.3-.7.1-1.4-.4-1.8-1.3-.7-1.9-3-1.9-4.6 0-.8.9-3 1.5-5.9 1.5-5.2 0-6.3.5-8.1 3.9-1.2 2.3-.2 4 2.3 4.1.4 0 .7.5.7 1.1s-.7.8-1.5.5c-4.3-1.7-4.8-1.6-2.2.6 3.1 2.7 3.3 3.4 1.3 4.1-1.4.6-7.6-4.5-7.6-6.1 0-1.8-8.2-5.2-10.8-4.5-2.6.6-2.6.5-1.1-1.3.9-1 1.4-2.5 1.2-3.2-.5-1.4 2.3-1.7 3.2-.2.3.5 1.3.6 2.3.3 1.4-.6 1.5-.4.5.8s-.6 1.7 1.8 2.8c3.5 1.5 5.3.6 2.6-1.4-1.8-1.3-1.8-1.4 0-2.3 1.3-.8 2.3-.6 3.7.6 1.8 1.6 1.9 1.6 1.2-1.9-.7-4.2-.2-5.1 2.8-4 4.9 1.9 10.6 2.2 10 .6-.4-1 0-1.5 1.5-1.5 1.2 0 2.1-.5 2.1-1 0-.6-1.2-1-2.6-1-2.9 0-6.4-1.6-6.4-3 0-1.7 8.2-1.2 9.4.6 1.5 1.9 8 2.2 10.1.4 1.2-1 1.9-1 3.3.4 2.1 1.9 5.7 2.2 4.6.4-.5-.8-.2-.9.9-.5 2.5.9 2.1-.6-.7-3.1-2.6-2.2-7-2.6-6.2-.6.6 1.7-4.3 2.7-6 1.3-1.1-.9-1.4-.9-1.4 0 0 .8-.4.8-1.4-.1-.8-.7-1.2-1.6-.9-2 .2-.4-.3-.5-1.2-.2-1.5.6-4.5-1.1-4.5-2.6 0-1.4 3.1-2 5.1-.9 2.2 1.1 16.9 2.4 16.9 1.4 0-1.1-6.4-6-7.4-5.7-.5.2-1.2-.2-1.6-.9-.5-.6-1.6-.8-2.9-.4-1.7.5-1.9 1-1.1 2 1.4 1.6-.7 2.5-3.5 1.5-1.1-.4-3.1-.3-4.5.2-5.3 2.1-11.3 1.7-10.4-.7.7-1.7-1.4-3-4.6-3-1.9 0-2.6-.6-2.8-2.3q-.3-2.4-1.8-1.8c-.8.3-1.4-.1-1.4-.8s1.4-1.6 3-2c1.7-.3 4.6-1.7 6.4-3.1s3.5-2.2 3.9-1.9c.3.3 1.4.1 2.4-.4 2.6-1.5 4.2.4 1.8 2.2m2.2 1.3c-.4.3-1 .3-1.4 0-.3-.4 0-.7.7-.7s1 .3.7.7m25.3.8c0 .3-.2.5-.5.5s-.5-.2-.5-.5.2-.5.5-.5.5.2.5.5m28.7.2c-.4.3-1 .3-1.4 0-.3-.4 0-.7.7-.7s1 .3.7.7m-58 2c-.4.3-1 .3-1.4 0-.3-.4 0-.7.7-.7s1 .3.7.7m32 8c-.4.3-.7 0-.7-.7s.3-1 .7-.7c.3.4.3 1 0 1.4m-44 3c-.4.3-.7 0-.7-.7s.3-1 .7-.7c.3.4.3 1 0 1.4m2.3.8c0 .3-.2.5-.5.5s-.5-.2-.5-.5.2-.5.5-.5.5.2.5.5m78.7 1.2c-.4.3-.7 0-.7-.7s.3-1 .7-.7c.3.4.3 1 0 1.4M109 33.1c2.2.6 2.1.7-1.1.8-1.9.1-4.4-.6-5.5-1.4-2-1.6-.2-1.5 6.6.6m60-1.6c0 .3-.2.5-.5.5s-.5-.2-.5-.5.2-.5.5-.5.5.2.5.5m-73 1c0 .3-.2.5-.5.5s-.5-.2-.5-.5.2-.5.5-.5.5.2.5.5m63.7 1.2c-.4.3-1 .3-1.4 0-.3-.4 0-.7.7-.7s1 .3.7.7m4.6 2.9c.3.3.3 1.2 0 2-.6 1.6-4.3 1.9-4.3.4 0-.6-.9-1-2-1s-2-.5-2-1c0-1.1 7.3-1.4 8.3-.4m4.7 1.9c0 .3-.2.5-.5.5s-.5-.2-.5-.5.2-.5.5-.5.5.2.5.5m15.5.5c.3.5.4 1 .1 1s-.8-.5-1.1-1c-.3-.6-.4-1-.1-1s.8.4 1.1 1m3 5c.3.5.1 1-.4 1-.6 0-1.1-.5-1.1-1 0-.6.2-1 .4-1 .3 0 .8.4 1.1 1m3.2 1.7c-.4.3-1 .3-1.4 0-.3-.4 0-.7.7-.7s1 .3.7.7M88 46.5c0 .3-.2.5-.5.5s-.5-.2-.5-.5.2-.5.5-.5.5.2.5.5m73 0c0 .3-.2.5-.5.5s-.5-.2-.5-.5.2-.5.5-.5.5.2.5.5m32 1c0 .3-.2.5-.5.5s-.5-.2-.5-.5.2-.5.5-.5.5.2.5.5m-75.2 5.1c1.2.4 2.2 1.2 2.2 1.9s1.7 1.9 3.8 2.8c3.1 1.3 3.3 1.5 1.3 1.6-2.4.1-2.4.1-.5 2.2 1.4 1.6 1.5 2.3.7 2.6-1.8.6-1.6 3.3.2 3.3 1.6 0 1.6.1 2 3.7.1 1.3 1.4 3.2 2.9 4.4 1.4 1.1 2.6 2.7 2.6 3.5s.7 1.4 1.5 1.4 1.5.4 1.5.9c0 1.1 12.3 7.1 14.5 7.1.8 0 1.5.4 1.5 1 0 .5.6 1 1.4 1 1.7 0 8.1 5.9 9 8.4.5 1.6 1.3 1.7 5.2 1.1s5.5-.2 11 2.5c3.5 1.8 7 3 7.8 2.7 2.1-.8 4.2 1.9 2.4 3-.8.4-2 2.6-2.7 4.8s-2.2 6.7-3.5 10l-2.2 6-10 .1c-5.5 0-10.5.4-11.3.8-.8.5-1.6.4-2.1-.4-.6-.9-1.2-.9-2.9 0-2.3 1.2-4.5.2-6.4-2.8-.4-.6-1.6-1.2-2.5-1.2s-2.7-.6-3.9-1.3c-2.4-1.3-26.5-13.4-30.2-15.1-1.9-.9-2.5-.7-3.7.9-1 1.3-1.1 2.1-.4 2.3.8.3.7.8-.1 1.8-1.6 2 .7 7.4 3.2 7.4 1 0 3.8 2 6.1 4.3 2.4 2.4 5.2 4.9 6.3 5.5 1.9 1.1 1.9 1.1-.2 1.2-1.3 0-2.3.5-2.3 1.1s1.6 1 3.8.9c5.9-.3 6.9-.1 5.3.9-.7.5-3.2.7-5.5.5-4.1-.4-4.1-.4-.8.6 1.8.6 3.8 1.9 4.5 3 .6 1.1 1.7 2 2.3 2 .7 0 2.2.8 3.5 1.8 2.7 2.3 5 .8 10.1-6.6 2.6-3.7 3.4-4.3 6.1-4 3 .3 3.2.5 2.9 3.9-.4 4.1 3.5 6.8 8 5.3 1.3-.4 3.8-.8 5.7-.9 2.2-.1 4.1-1 5.2-2.4 1-1.3 2.3-2 2.9-1.6.5.3 1-.3 1-1.4 0-1.2.5-2.1 1-2.1 3.5 0-6.7 23.7-13.9 32.5-2.1 2.6-5.1 7-6.5 9.8-5 9.8-6.8 12.7-7.8 12.7-1.5 0-5.3 3.3-5.4 4.7-.2 2.9-.5 3.3-2.4 3.3-1.3 0-2.5 1.1-3.3 3.2-2.1 5-8.7 9.7-8.7 6.3 0-.8-.4-1.5-1-1.5-.5 0-1 .4-1 1 0 1.6-2.6 1.2-4.1-.6-1.2-1.4-1.4-1.4-2 .3-.7 1.6-.8 1.6-.8.1-.1-1-1.1-2.3-2.3-3-2.2-1.3-2.9-1.4-5.6-1.7-.9-.1-1-.6-.2-2 1.4-2.8 1.3-3.1-1.4-3.1-1.3 0-2.9-.7-3.6-1.5s-1.6-1.3-2-1c-.4.2-.5-.7-.2-2.2.3-1.6.1-2.4-.5-2-1.7 1.1-3.4-1.9-2.8-4.6.4-1.4 1.3-2.8 2.1-3.1s1.4-1.3 1.4-2.1c0-3.4 2-5.6 4-4.5 1.1.6 2.1.6 2.4.1.4-.5 2.4-.1 4.6 1 2.1 1 5.4 1.9 7.2 1.9 1.8.1 5.1.7 7.3 1.5s6.4 1.5 9.4 1.5c6.1 0 6.4-1 .5-1.4-6.7-.5-11.4-1.8-11.4-3.1 0-.8 1.3-1.1 3.8-1 2 .1 4.7.3 6 .4 1.3 0 2 .5 1.7 1.1-.4.6.5 1 1.9 1s2.6-.4 2.6-.9 1-1.1 2.3-1.3c1.6-.2 2.2-1 2.2-2.8 0-2.3-.4-2.5-4.4-2.6-3.5-.1-4.9-.7-6.7-2.7-1.3-1.5-2.6-2.7-2.9-2.7-.4 0-2-.9-3.6-2.1-3.1-2.2-5.9-2-5.9.5 0 2.1-5.7 3.9-6.4 2s-4.6-1.8-4.6.1c0 1.7-1.6 2-2.5.5-.3-.6-1.7-1-3.1-1s-2.3.4-1.9.9c.3.6-.1 1.3-.9 1.8-1.4.8-1.6 1.2-1.6 3.2 0 .5-1.1 1.2-2.5 1.5-1.4.4-2.5 1.3-2.5 2.2s-.7 1.4-1.7 1.2c-1.1-.2-1.7-1.1-1.5-2.2.2-1-.5-2.4-1.5-3.2-1.7-1.3-1.7-1.3.5-1.4 1.4 0 2.2-.6 2.2-1.8 0-1 1.6-3.5 3.6-5.6 2.5-2.7 3-3.6 1.6-3.2-1.6.6-1.9.2-1.8-3.1.1-2 .7-3.8 1.4-4.1.7-.2 1.2-1.7 1.2-3.3 0-2.1.5-2.9 1.7-2.9 1.5 0 1.4-.2-.3-1.4-1.8-1.4-1.8-1.5-.1-2.1 2.6-1.1 2.1-3.4-1.2-5.3-1.7-.9-3.2-2.4-3.4-3.3s-1.8-2.2-3.6-3c-2.1-1-3.4-2.5-4.2-4.9-.6-1.9-2.3-5.9-3.6-8.8l-2.6-5.3 2.4-4.5c1.2-2.5 3.1-5 4.1-5.5s1.8-1.5 1.8-2.1.8-2 1.7-3c1-1.1 1.9-3.6 2-5.5.1-2 .6-4 1.2-4.6 1.3-1.3 6.1 0 6.1 1.6 0 2 10.6 8.1 11.5 6.7.3-.5.3-3.6 0-6.9-.3-3.4-.2-6.1.2-6.1 1.1 0 1-13.2-.1-14.8-.4-.8-1.7-1.2-2.7-.9-1.1.3-1.7.1-1.3-.4.3-.5 1.6-.9 3-.9s2.2-.4 1.9-1-2-1-3.6-1c-3.7 0-6.4-1.4-7.3-3.6-.6-1.5 0-1.6 4.6-1.1 4.3.5 4.9.4 3.1-.5-4.7-2.3-2.1-4.7 3.5-3.2m10.5 3.1c-.7.2-1.9.2-2.5 0-.7-.3-.2-.5 1.2-.5s1.9.2 1.3.5m-46.8 2.2c.3.5.1 1.2-.5 1.6-.5.3-1-.1-1-.9 0-1.8.6-2.1 1.5-.7m7.5-.4c0 .3-.2.5-.5.5s-.5-.2-.5-.5.2-.5.5-.5.5.2.5.5m50.1 3.5c1 .6 3.9 1.1 6.4 1.2 2.4 0 4.3.3 4.1.7-.2.3 2.8.7 6.7.9 4 .1 7.4.7 7.5 1.2.2.6 1.4 1 2.6 1 2.8 0 7.4 2.2 10.3 5 1.2 1.1 3 2 4 2 2.9 0 6.3 1.2 6.3 2.1 0 1.7-6.5.9-10-1.2-2.4-1.5-5.3-2.2-9.6-2.3-3.4-.1-6.8-.7-7.5-1.3-1.6-1.2-7.4-2.4-13.2-2.8-2.1-.1-4.4-.8-5-1.4s-2.1-1.1-3.4-1.1-2.3-.4-2.3-.9 1-.7 2.3-.4c1.8.4 1.9.3.7-.6-.8-.6-2.5-1.1-3.7-1.1s-2.5-.5-2.8-1c-.8-1.3 4.1-1.3 6.6 0m-52.6 2c.3.5.1 1-.4 1-.6 0-1.1-.5-1.1-1 0-.6.2-1 .4-1 .3 0 .8.4 1.1 1M79 64c0 .5-.5 1-1.1 1-.5 0-.7-.5-.4-1 .3-.6.8-1 1.1-1 .2 0 .4.4.4 1m17.7-.3c-.4.3-1 .3-1.4 0-.3-.4 0-.7.7-.7s1 .3.7.7m89.4 6.1c1.3 1 3.3 2.2 4.4 2.6 1.2.5 1.5 1 .8 1.3-1.3.5-8.8-3.1-9.8-4.7-1-1.7 2.1-1.1 4.6.8m-33.5 1.1c-.3.4 1.3 1.3 3.4 2 4.8 1.4 5.5 3.6.9 2.7-1.7-.3-5.3-.6-8-.6-3.6 0-4.9-.4-4.9-1.4 0-1.5 3.4-3.1 4.8-2.2.4.2 1.4.1 2.2-.5 1.9-1.1 2.3-1.1 1.6 0m51.4 1.6c0 .3-.2.5-.5.5s-.5-.2-.5-.5.2-.5.5-.5.5.2.5.5M84.7 89.2c-.3.8-.6.5-.6-.6-.1-1.1.2-1.7.5-1.3.3.3.4 1.2.1 1.9m.3 6.3c0 .8-.4 1.5-1 1.5-.5 0-.7-.7-.4-1.5.4-.8.8-1.5 1-1.5s.4.7.4 1.5m-12 1c0 .3-.2.5-.5.5s-.5-.2-.5-.5.2-.5.5-.5.5.2.5.5m11.1 11.1c-.1 4.8-.3 9-.6 9.2-1.2 1.2-3.5-2.4-3.5-5.4 0-2.5-.4-3.2-1.5-2.8-.8.4-1.7-.1-2.1-.9-.7-2 1.3-5.7 3.1-5.7.8 0 1.2-.6.9-1.4-.5-1.2 2.3-2.8 3.5-2 .2.2.3 4.2.2 9M74 99.5c0 .3-.2.5-.5.5s-.5-.2-.5-.5.2-.5.5-.5.5.2.5.5m123.4 6c-.4.8-.8 1.5-1 1.5s-.4-.7-.4-1.5.4-1.5 1-1.5c.5 0 .7.7.4 1.5m-4.7 6.2c-.4.3-.7 0-.7-.7s.3-1 .7-.7c.3.4.3 1 0 1.4m-69.1 13.8c2 2.1 2.7 2.3 5 1.5 3-1.2 4.6-.4 2.4 1.1-3.3 2.1-11-.9-11-4.3 0-1.4 1.2-.9 3.6 1.7M167 136c1.1-.6 2.5-.8 3.2-.4s.1 1.2-1.5 2c-2.6 1.4-8.7-.7-8.7-2.9 0-.4 1.1 0 2.4.8 1.9 1.3 2.9 1.4 4.6.5m-64 .5c0 .3-.2.5-.5.5s-.5-.2-.5-.5.2-.5.5-.5.5.2.5.5m27 2c0 .3-.2.5-.5.5s-.5-.2-.5-.5.2-.5.5-.5.5.2.5.5m50.5 7.5c-.3.5-1 1-1.6 1-.5 0-.9-.5-.9-1 0-.6.7-1 1.6-1 .8 0 1.2.4.9 1m4.5 2c0 .5-.7 1-1.6 1-.8 0-1.2-.5-.9-1 .3-.6 1-1 1.6-1 .5 0 .9.4.9 1m6.2 2.2c-1.8 1.8-1.4 3.1.8 2.5s3.7.8 2 1.8c-1.1.7-7-1.6-7-2.7 0-.8 3.1-2.7 4.5-2.8.5 0 .4.5-.3 1.2m-6.5 5.5c-.4.3-1 .3-1.4 0-.3-.4 0-.7.7-.7s1 .3.7.7M199 157c0 1.3-1.1 1.3-3 0-1.2-.8-1.1-1 .8-1 1.2 0 2.2.4 2.2 1m-167 9.5c0 .3-.2.5-.5.5s-.5-.2-.5-.5.2-.5.5-.5.5.2.5.5m189 2c.7 1.4 1 2.8.7 3.1-.8.9-4.7-3.8-4-4.8.8-1.4 1.9-.8 3.3 1.7m-98.5 1.5c.3 1.1 1.3 2 2 2 .8 0 1.6.4 1.9.9.8 1.2-6.2.7-7.5-.6-1.2-1.2-.1-4.3 1.6-4.3.8 0 1.7.9 2 2m91.9 2.4c-.6 1.6-2.5 2.1-3.7.9-.4-.3.3-1.1 1.6-1.8 2.7-1.4 2.9-1.3 2.1.9m4.6 1.1c0 .3-.2.5-.5.5s-.5-.2-.5-.5.2-.5.5-.5.5.2.5.5m-172 2c0 .3-.2.5-.5.5s-.5-.2-.5-.5.2-.5.5-.5.5.2.5.5m30 0c0 .3-.2.5-.5.5s-.5-.2-.5-.5.2-.5.5-.5.5.2.5.5m-28.3 4.2c-.3 1-.5.4-.5-1.2 0-1.7.2-2.4.5-1.8.2.7.2 2.1 0 3M24 183.5c0 .3-.2.5-.5.5s-.5-.2-.5-.5.2-.5.5-.5.5.2.5.5m21.8 5.2c-.2 1-1 1.8-1.8 1.8s-1.6-.8-1.8-1.8c-.2-1.2.3-1.7 1.8-1.7s2 .5 1.8 1.7m48.8 3.1c1.1.6 1.5 1.6 1.1 2.7-.9 2.1-3.3 1.4-3.1-.9.1-.9-.2-1.6-.7-1.6s-.9-1.2-.8-2.8c0-2.5.1-2.6.9-.5.5 1.2 1.6 2.6 2.6 3.1m93.4-.7c0 .5-.7.9-1.5.9-2.9 0-2.8 3 0 5.6 2.1 2 2.5 2.8 1.6 3.7s-1.5.8-2.2-.6c-.6-.9-1.4-1.5-2-1.2-1 .7-1.3-6.4-.3-8.8.6-1.5 4.4-1.2 4.4.4m6 1c0 1 .5 1.9 1 1.9.6 0 1 .4 1 1 0 .5-.7 1-1.5 1s-1.5-.5-1.5-1c0-.6-.5-1-1.1-1s-.8.9-.4 2.2c.6 1.9.5 2.1-.6 1-.7-.6-2.1-1.2-3.1-1.2-2.8 0-2.1-2.1 1.2-3.3 1.7-.6 3-1.7 3-2.5 0-.7.5-1 1-.7.6.3 1 1.5 1 2.6m-145.3 7.1c-.3.8-.6.5-.6-.6-.1-1.1.2-1.7.5-1.3.3.3.4 1.2.1 1.9m42 .5c-.4.3-.7 0-.7-.7s.3-1 .7-.7c.3.4.3 1 0 1.4m13.3.3c0 .5.6 1 1.3 1 2.6 0 4.3 1.9 2.7 3-2.5 1.7-6.8 1.2-8-.9-1.6-3.1-1.2-4.1 1.5-4.1 1.4 0 2.5.4 2.5 1m-31 .5c0 .3-.2.5-.5.5s-.5-.2-.5-.5.2-.5.5-.5.5.2.5.5m-23.3 7.2c-.4.3-1 .3-1.4 0-.3-.4 0-.7.7-.7s1 .3.7.7m-1.7 3.8c0 .3-.2.5-.5.5s-.5-.2-.5-.5.2-.5.5-.5.5.2.5.5m148 1c0 .3-.2.5-.5.5s-.5-.2-.5-.5.2-.5.5-.5.5.2.5.5m-105.3 3.2c-.4.3-1 .3-1.4 0-.3-.4 0-.7.7-.7s1 .3.7.7m28.3.3c0 .5-.5 1-1.1 1-.5 0-.7-.5-.4-1 .3-.6.8-1 1.1-1 .2 0 .4.4.4 1m77 .5c0 .3-.2.5-.5.5s-.5-.2-.5-.5.2-.5.5-.5.5.2.5.5m-3.3 2.7c-.3.8-.6.5-.6-.6-.1-1.1.2-1.7.5-1.3.3.3.4 1.2.1 1.9m-99.8 2.4c1.3.3 2.1.7 1.8 1-1 1-9.7 1.5-9.7.5 0-1.6 3.7-2.3 7.9-1.5"/><path d="M127.5 22c.3.5.8 1 1.1 1s.2-.5-.1-1c-.3-.6-.8-1-1.1-1s-.2.4.1 1m6.5-.1c0 .6.5 1.3 1 1.6.6.3 1-.1 1-.9 0-.9-.4-1.6-1-1.6-.5 0-1 .4-1 .9m-15 1.6c0 .3.2.5.5.5s.5-.2.5-.5-.2-.5-.5-.5-.5.2-.5.5M104 27c0 .7.3 1 .7.7.3-.4.3-1 0-1.4-.4-.3-.7 0-.7.7m23 14c0 .7.3 1 .7.7.3-.4.3-1 0-1.4-.4-.3-.7 0-.7.7m-25.5 5c-.3.5.1 1 .9 1s1.8-.5 2.1-1c.3-.6-.1-1-.9-1s-1.8.4-2.1 1m66 0c.3.5.8 1 1.1 1s.2-.5-.1-1c-.3-.6-.8-1-1.1-1s-.2.4.1 1m6.8 1.7c.4.3 1 .3 1.4 0 .3-.4 0-.7-.7-.7s-1 .3-.7.7M135 50.5c0 .3.2.5.5.5s.5-.2.5-.5-.2-.5-.5-.5-.5.2-.5.5m1.3 2.2c.4.3 1 .3 1.4 0 .3-.4 0-.7-.7-.7s-1 .3-.7.7m39.8 2c-.1.7-.8 1.3-1.7 1.3-1.3 0-1.4.3-.5 1.3.6.8 2.3 1.2 4.1.9s4 .2 5.6 1.3c2 1.3 2.8 1.4 4 .4 1.9-1.5 1.8-3.3-.1-2.5-1.6.6-6.5-1.2-7.7-2.9-.5-.6-1.1-.5-1.7.4-.7 1.1-.9 1.1-1.4 0-.4-1-.6-1-.6-.2M167 56c0 .5.7 1 1.5 1s1.5-.5 1.5-1c0-.6-.7-1-1.5-1s-1.5.4-1.5 1m-25 1c0 .5.7 1 1.6 1 .8 0 1.2-.5.9-1-.3-.6-1-1-1.6-1-.5 0-.9.4-.9 1m7 .4c0 .2.7.7 1.6 1 .8.3 1.2.2.9-.4-.6-1-2.5-1.4-2.5-.6m40 2.6c0 .5.5 1 1 1 .6 0 1-.5 1-1 0-.6-.4-1-1-1-.5 0-1 .4-1 1M87 111c0 .7.3 1 .7.7.3-.4.3-1 0-1.4-.4-.3-.7 0-.7.7m30 20.1c0 .5.5.7 1 .4.6-.3 1-.8 1-1.1 0-.2-.4-.4-1-.4-.5 0-1 .5-1 1.1m3 12.4c0 .3.2.5.5.5s.5-.2.5-.5-.2-.5-.5-.5-.5.2-.5.5m37 1.5c0 .7.3 1 .7.7.3-.4.3-1 0-1.4-.4-.3-.7 0-.7.7m-18 2c0 1.9.3 2.1 1.2 1.2s.9-1.5 0-2.4-1.2-.7-1.2 1.2m-34.9 2.7c-.1 2.8.3 3.3 2.2 3.3 1.2 0 1.7-.4 1.2-.8-.6-.4-1.6-1.8-2.2-3.2-1.2-2.5-1.2-2.5-1.2.7m24.4-1.1c-2.2.7-4.1 1.4-4.1 1.4-.1 0-.5.7-.8 1.6-.3.8-.2 1.2.4.9s1 .3 1 1.4c0 4.1 3.6 2.6 5.3-2.2 1-2.7 2.8-2 2.1.8-.7 3 2 3.6 3.4.7 2.2-4.2-1.6-6.6-7.3-4.6m-14.5 1.3c0 1.1-.6 2.2-1.2 2.4-.9.4-.8.6.2.6 2.5.1 4.3-1.6 3.7-3.3-.9-2.2-2.7-2-2.7.3m-9 27.6c0 .8.4 1.5.9 1.5s1.4-.7 2.1-1.5c1-1.3.9-1.5-.9-1.5-1.2 0-2.1.6-2.1 1.5m47-1c0 .3.2.5.5.5s.5-.2.5-.5-.2-.5-.5-.5-.5.2-.5.5m-7 2.5c0 .5.4 1 .9 1 .6 0 1.3-.5 1.6-1 .3-.6-.1-1-.9-1-.9 0-1.6.4-1.6 1m-26.6 6.4c-.4 1.1-.2 2.1.6 2.6.7.4 1 1.5.7 2.5-.4 1-.3 1.4.4 1 .5-.4 2.1 0 3.4.9s3.8 1.4 5.5 1.3c3.1-.4 5.4-1.7 2.9-1.7-1-.1-.8-.4.4-1.1 2.8-1.6-.9-3.9-7-4.4-2.5-.2-5-1-5.4-1.7-.6-.9-1-.8-1.5.6M186.5 1c.3.5-.3 1-1.4 1-4.9 0-1.5 3.3 3.6 3.5 3.8.1 3.9-.2 1.4-3.3-1.9-2.1-4.8-3.2-3.6-1.2m17.8 3.4c-1.8 3.6-2.5 4.3-4.5 3.9-2.1-.4-2.3-.1-2.3 3.6-.1 2.4.4 4.2 1.2 4.5.8.4 1.3-.3 1.3-1.6 0-2 .1-2.1 2-.3 1.3 1.2 2 3.1 2 5.4 0 3.6 2.7 9.2 6 12.3 1.7 1.6 1.8 1.6 2.4-.8.4-1.3 1.3-2.4 2.1-2.4s1.5-.7 1.5-1.5c0-2 2.4-1.9 4 0 .9 1.1 1 1.9.3 2.6-1.6 1.6 0 7 2.5 8.7l2.2 1.4v-18c0-19.7.2-19.2-6.3-19.7-2.3-.2-4.3-.8-4.5-1.4s-2-1.1-4.1-1.1c-3.4 0-3.9.4-5.8 4.4m18.5 3.3c-1 .2-2.8.2-4 0-1.3-.2-.5-.4 1.7-.4 2.2-.1 3.2.1 2.3.4M112 2.5c0 .3.2.5.5.5s.5-.2.5-.5-.2-.5-.5-.5-.5.2-.5.5m5 2c0 .3.2.5.5.5s.5-.2.5-.5-.2-.5-.5-.5-.5.2-.5.5m20.5.4c-1.6.7-1.4.9 1.4 1.4 4.5.9 6.1.9 6.1-.2 0-.5-.9-.7-2-.4s-2 0-2-.6c0-1.2-.7-1.3-3.5-.2M96.3 7.7c.4.3 1 .3 1.4 0 .3-.4 0-.7-.7-.7s-1 .3-.7.7m54.7.8c0 .3.2.5.5.5s.5-.2.5-.5-.2-.5-.5-.5-.5.2-.5.5m41.8.2c.7.3 1.6.2 1.9-.1.4-.3-.2-.6-1.3-.5-1.1 0-1.4.3-.6.6M160 10c0 .5.4 1 .9 1 .6 0 1.3-.5 1.6-1 .3-.6-.1-1-.9-1-.9 0-1.6.4-1.6 1m22 2c0 .6.4 1 .9 1 .4 0 .6 1.2.3 2.6-.3 1.9-.1 2.5.7 2 .6-.4 1.1-.1 1.1.8 0 .8.8 2 1.8 2.6 1.6 1.1 1.6 1.1 0 .6-2.3-.7-2.2-.4.2 3.6 1.1 1.8 2 4.4 2 5.7 0 1.9.3 2.1 1.4 1.1 1.2-.9 1.7-.8 2.7.8.7 1.1 1.8 1.8 2.4 1.5.7-.2 1.5.5 1.8 1.6.3 1.2 1 2.1 1.7 2.1 3 0-2.5-7.9-5.5-8-.6 0-1.9-3.3-2.9-7.3-1-3.9-2.6-7.9-3.5-8.8-2.1-2-5.1-3.1-5.1-1.9m9.4 1.4c3.1 7.3 4.6 8.4 4.6 3.2 0-2.8-.4-3.4-2.6-3.9-1.6-.3-2.3 0-2 .7M175 14c0 .5.9 1 1.9 1 1.1 0 2.1.6 2.4 1.2.2.7.8 1 1.2.6 1.2-1.1-1.4-3.8-3.6-3.8-1.1 0-1.9.4-1.9 1M0 16.5c0 .3.2.5.5.5s.5-.2.5-.5-.2-.5-.5-.5-.5.2-.5.5m159 1c0 .3.2.5.5.5s.5-.2.5-.5-.2-.5-.5-.5-.5.2-.5.5m18 .5c0 .7.3 1 .7.7.3-.4.3-1 0-1.4-.4-.3-.7 0-.7.7M59.7 23.5c-.7 1.6.1 4.5 1.2 4.5 1.7-.1 3.3-1.9 2.9-3.6-.4-2.4-3.3-3-4.1-.9m88.6.2c.4.3 1 .3 1.4 0 .3-.4 0-.7-.7-.7s-1 .3-.7.7m4.5 2c.7.3 1.6.2 1.9-.1.4-.3-.2-.6-1.3-.5-1.1 0-1.4.3-.6.6M160 27c0 .5.7 1 1.6 1 .8 0 1.2-.5.9-1-.3-.6-1-1-1.6-1-.5 0-.9.4-.9 1m-87 5.5c0 .3.2.5.5.5s.5-.2.5-.5-.2-.5-.5-.5-.5.2-.5.5M211.5 46c-.9 1.7-1.1 3-.5 3 .5 0 1 1.6 1 3.5 0 2.3-.4 3.4-1.2 3.2-1.7-.3-1.1 4.3.9 6.4 1.1 1.4 1.2 1.8.1 2.2-1 .4-.9.9.5 1.7.9.6 1.7 1.7 1.7 2.4 0 1.4 2.7 1.5 4.9.2.7-.5 1.7-.4 2.3.2 2.7 2.7 3.8 0 3.8-9.7 0-5.8-.4-9.1-.9-8.2-.7 1.1-1.3.9-3-.8-1.1-1.1-2.8-2.1-3.6-2.1-.9 0-1.5-.9-1.5-2.5 0-3.5-2.6-3.2-4.5.5M72 45c0 .7.3 1 .7.7.3-.4.3-1 0-1.4-.4-.3-.7 0-.7.7m-29 4.9c0 2.5.6 2.7 1.3.6.4-.8.2-1.7-.3-2-.6-.4-1 .3-1 1.4m27 4.6c0 .8.5 1.5 1 1.5.6 0 1-.7 1-1.5s-.4-1.5-1-1.5c-.5 0-1 .7-1 1.5m-29.7 5.7c-2.8 1.2-4.4 2.6-4.7 4.1-3 14.6-2.8 17.1 1.2 17.5 2.7.3 3.2 0 3.2-1.7 0-1.2.4-2.1 1-2.1.5 0 3.2-1.3 6-3 3.2-1.9 6.9-3.1 10.4-3.5 6.6-.6 10.9-2.1 10.1-3.5-.3-.5-1.3-1-2.1-1s-1.4-.6-1.4-1.3c0-1-12.4-5.7-15.5-5.9-.5 0-1.7-.3-2.5-.8-.9-.4-3.3.1-5.7 1.2m28.9 24.6c-1.6 3.4-1.1 3.6 1.4.7 1.4-1.5 1.7-2.5 1-2.8-.6-.3-1.7.7-2.4 2.1m131.6-1.1c.7.3 1.6.2 1.9-.1.4-.3-.2-.6-1.3-.5-1.1 0-1.4.3-.6.6m22.1 6.9c-1.3 1.6-3.1 4.5-4.5 7.2-1 2 1 3.4 4 2.6 2.4-.6 2.6-1 2.6-6 0-5.9-.1-6.2-2.1-3.8m1.1 15.3c0 .4-3.4 1.1-7.5 1.4-6.3.6-8.3 1.2-12.4 4l-4.9 3.4 1.9 3c3.1 4.8 13.1 5.6 11.3.9-.7-1.9 5.4-4 8-2.8 2 .9 2.2 1.6 1.9 6-.3 3.8-.1 5.1 1.1 5.5 1.4.6 1.6-.8 1.6-10.8 0-6.3-.2-11.5-.5-11.5s-.5.4-.5.9m-156 .6c0 .3.2.5.5.5s.5-.2.5-.5-.2-.5-.5-.5-.5.2-.5.5"/><path d="M210 124.5c0 1.7 3.6 3.9 5.5 3.1.8-.3 1.1-1.3.8-2.5-.6-2.5-6.3-3.1-6.3-.6M26 128c-2.1.7-1.9.8 1.5.8 2.2 0 5.1-.4 6.5-.8 2.1-.7 1.9-.8-1.5-.8-2.2 0-5.1.4-6.5.8m12.7.8c-1.8.4-1.7.5.2 1.9 1.7 1.2 3.8 1.3 9.9.7 6.7-.6 7.2-.8 4.2-1.5-5.1-1-12.2-1.6-14.3-1.1m-5.4 12.3c-4.7.6-5.8 1.2-4.9 2.8.5.7 4.5.8 11.6.4 10.7-.6 11-.5 11.8 1.6.4 1.2 1.9 2.8 3.2 3.4 1.4.7 3.1 2.5 3.8 3.9.7 1.5 2.1 3 3.2 3.3 1.9.6 2.5 2.1 2.2 5.7-.1 1.3.6 1.8 2.3 1.8 1.4 0 2.5-.4 2.5-1 0-1.7-2.4-10.5-3.1-11-2.1-1.8-4.3-7.3-3.1-7.7 6.8-2.4-16.7-4.9-29.5-3.2m55.7 4.4c0 .3.2.5.5.5s.5-.2.5-.5-.2-.5-.5-.5-.5.2-.5.5m124.5 1.5c-.3.5.1 2 .9 3.2.9 1.2 1.6 1.7 1.6 1 0-.6.7-1.2 1.5-1.2 2.8 0 6.6-2.3 5.3-3.2-1.8-1.1-8.6-1-9.3.2m7.5 5.5c0 .3.2.5.5.5s.5-.2.5-.5-.2-.5-.5-.5-.5.2-.5.5m-177.7 2.2c.4.3 1 .3 1.4 0 .3-.4 0-.7-.7-.7s-1 .3-.7.7m-32.5 5c-3.7.4-7.7 3.3-4.5 3.3.9 0 1.9-.5 2.2-1 .3-.6 1.7-1 3-1s2.7-.5 3-1c.3-.6.5-.9.3-.8s-2 .3-4 .5m5.5 1c.4.3 1 .3 1.4 0 .3-.4 0-.7-.7-.7s-1 .3-.7.7m179.7 6.8c0 .3.2.5.5.5s.5-.2.5-.5-.2-.5-.5-.5-.5.2-.5.5m3.8 1.2c-.3 1.1.3 3.1 1.3 4.4 2.2 2.8 2.4 1.4.5-3.1-1.1-2.7-1.4-2.9-1.8-1.3m-21.6 10.5c.6 1.8 2.5 2 3.1.3.5-1 0-1.5-1.4-1.5-1.2 0-1.9.5-1.7 1.2m39.3 5.5c-3.8 4.1-4.2 4.9-2.8 5.4 3.1 1.2 9.8-3.4 10.1-7 .5-4.5-1.9-4-7.3 1.6m-4.5-2.2c0 .3.2.5.5.5s.5-.2.5-.5-.2-.5-.5-.5-.5.2-.5.5m-5 4.5c0 .5.5 1 1 1 .6 0 1-.5 1-1 0-.6-.4-1-1-1-.5 0-1 .4-1 1M0 190.1c0 1.1.4 1.8 1 1.4.5-.3.7-1.2.3-2-.7-2.1-1.3-1.9-1.3.6m25 2.9c0 .7.3 1 .7.7.3-.4.3-1 0-1.4-.4-.3-.7 0-.7.7m7-.5c0 .3.2.5.5.5s.5-.2.5-.5-.2-.5-.5-.5-.5.2-.5.5m175 4c0 .3.2.5.5.5s.5-.2.5-.5-.2-.5-.5-.5-.5.2-.5.5m-177.7 2.9c-2.8 1.3-2.8 1.8-.4 4 2.2 2 6.6 1.3 7.6-1.2 1.2-3.2-3.1-4.9-7.2-2.8m-6.3 1.1c0 .3.2.5.5.5s.5-.2.5-.5-.2-.5-.5-.5-.5.2-.5.5m-23 15v7.5h4c4.8 0 6-4.3 1.8-6-1.3-.5-1.9-.9-1.4-.9.5-.1.3-.8-.4-1.6-.9-1.1-1-1.9-.1-2.8 1.2-1.5-.3-3.7-2.6-3.7-1 0-1.3 2-1.3 7.5m162-6c0 .8-.4 1.5-1 1.5-.5 0-1 1.1-1 2.5s.5 2.5 1 2.5c.6 0 1-1.1 1-2.4 0-1.4.5-2.8 1-3.1.6-.3 1-1 1-1.6 0-.5-.4-.9-1-.9-.5 0-1 .7-1 1.5m17 4.5c0 .5.4 1 .9 1 .6 0 1.3-.5 1.6-1 .3-.6-.1-1-.9-1-.9 0-1.6.4-1.6 1m-167 2.5c0 .3.2.5.5.5s.5-.2.5-.5-.2-.5-.5-.5-.5.2-.5.5m164 0c0 .3.2.5.5.5s.5-.2.5-.5-.2-.5-.5-.5-.5.2-.5.5m-130.2 7.2c.7.3 1.6.2 1.9-.1.4-.3-.2-.6-1.3-.5-1.1 0-1.4.3-.6.6m-44.8.8c0 .3.2.5.5.5s.5-.2.5-.5-.2-.5-.5-.5-.5.2-.5.5"/></svg>