<svg xmlns="http://www.w3.org/2000/svg" width="512" height="512" viewBox="0 0 64 64" xml:space="preserve"><path d="M4 15.51a1 1 0 0 0 .71-.29L15.22 4.71a1 1 0 1 0-1.42-1.42L3.29 13.8a1 1 0 0 0 0 1.42 1 1 0 0 0 .71.29m0 11.38a1 1 0 0 0 .71-.29L26.6 4.71a1 1 0 1 0-1.42-1.42L3.29 25.18a1 1 0 0 0 0 1.42 1 1 0 0 0 .71.29m0 11.36a1 1 0 0 0 .71-.25L38 4.71a1 1 0 1 0-1.42-1.42L3.29 36.54a1 1 0 0 0 0 1.42 1 1 0 0 0 .71.29m0 11.38a1 1 0 0 0 .71-.29L49.34 4.71a1 1 0 1 0-1.42-1.42L3.29 47.92a1 1 0 0 0 0 1.42 1 1 0 0 0 .71.29M60.71 3.29a1 1 0 0 0-1.42 0l-56 56a1 1 0 0 0 0 1.42 1 1 0 0 0 1.42 0l56-56a1 1 0 0 0 0-1.42m-1.42 11.37L14.66 59.29a1 1 0 0 0 0 1.42 1 1 0 0 0 1.42 0l44.63-44.63a1 1 0 0 0-1.42-1.42m0 11.34L26 59.29a1 1 0 0 0 0 1.42 1 1 0 0 0 1.42 0l33.29-33.25A1 1 0 0 0 59.29 26m0 11.4L37.4 59.29a1 1 0 0 0 0 1.42 1 1 0 0 0 1.42 0l21.89-21.89a1 1 0 0 0-1.42-1.42m0 11.38L48.78 59.29a1 1 0 0 0 0 1.42 1 1 0 0 0 1.42 0L60.71 50.2a1 1 0 0 0-1.42-1.42" data-original="#000000" data-name="Layer 9"/></svg>