<svg xmlns="http://www.w3.org/2000/svg" width="512" height="512" viewBox="0 0 64 64"><path d="M61 4a1 1 0 0 0-1-1H4a1 1 0 0 0 0 2h56a1 1 0 0 0 1-1m0 8a1 1 0 0 0-1-1H4a1 1 0 0 0 0 2h56a1 1 0 0 0 1-1m0 8a1 1 0 0 0-1-1H4a1 1 0 0 0 0 2h56a1 1 0 0 0 1-1m0 8a1 1 0 0 0-1-1H4a1 1 0 0 0 0 2h56a1 1 0 0 0 1-1m0 8a1 1 0 0 0-1-1H4a1 1 0 0 0 0 2h56a1 1 0 0 0 1-1m0 8a1 1 0 0 0-1-1H4a1 1 0 0 0 0 2h56a1 1 0 0 0 1-1m0 8a1 1 0 0 0-1-1H4a1 1 0 0 0 0 2h56a1 1 0 0 0 1-1m0 8a1 1 0 0 0-1-1H4a1 1 0 0 0 0 2h56a1 1 0 0 0 1-1"/></svg>