<svg xmlns="http://www.w3.org/2000/svg" width="512" height="512" viewBox="0 0 64 64" xml:space="preserve"><path d="M4 5c1.73 0 2.59 1.06 3.85 2.8s2.64 3.62 5.48 3.62S17.57 9.5 18.8 7.8 20.92 5 22.66 5s2.6 1.06 3.86 2.8 2.63 3.62 5.47 3.62 4.24-1.92 5.48-3.62S39.59 5 41.32 5s2.6 1.06 3.87 2.8 2.63 3.62 5.47 3.62 4.25-1.92 5.48-3.62S58.26 5 60 5a1 1 0 0 0 0-2c-2.84 0-4.24 1.92-5.48 3.62s-2.12 2.8-3.86 2.8-2.6-1.06-3.86-2.8S44.17 3 41.32 3s-4.24 1.92-5.47 3.62-2.12 2.8-3.85 2.8-2.59-1.06-3.85-2.8S25.5 3 22.66 3s-4.24 1.92-5.47 3.62-2.13 2.8-3.86 2.8-2.6-1.06-3.86-2.8S6.84 3 4 3a1 1 0 0 0 0 2m56 10.39c-2.84 0-4.24 1.93-5.48 3.63s-2.12 2.8-3.86 2.8-2.6-1.07-3.86-2.8-2.63-3.63-5.48-3.63-4.24 1.93-5.47 3.61-2.12 2.8-3.86 2.8-2.59-1.05-3.85-2.8-2.64-3.63-5.48-3.63-4.24 1.95-5.47 3.63-2.13 2.8-3.86 2.8-2.6-1.07-3.86-2.8S6.84 15.39 4 15.39a1 1 0 0 0 0 2c1.73 0 2.59 1.07 3.85 2.8s2.64 3.63 5.48 3.63 4.24-1.93 5.47-3.63 2.12-2.8 3.86-2.8 2.6 1.07 3.86 2.8 2.63 3.63 5.47 3.63 4.24-1.93 5.48-3.63 2.12-2.8 3.85-2.8 2.6 1.07 3.87 2.8 2.63 3.63 5.47 3.63 4.25-1.93 5.48-3.63 2.12-2.8 3.86-2.8a1 1 0 0 0 0-2m0 12.4c-2.84 0-4.24 1.92-5.48 3.62s-2.12 2.8-3.86 2.8-2.6-1.06-3.86-2.8-2.63-3.62-5.48-3.62-4.24 1.92-5.47 3.62-2.12 2.8-3.86 2.8-2.59-1.06-3.85-2.8-2.64-3.62-5.48-3.62-4.24 1.92-5.47 3.62-2.13 2.8-3.86 2.8-2.6-1.06-3.86-2.8S6.84 27.79 4 27.79a1 1 0 0 0 0 2c1.73 0 2.59 1.06 3.85 2.8s2.64 3.62 5.48 3.62 4.24-1.92 5.47-3.62 2.12-2.8 3.86-2.8 2.6 1.06 3.86 2.8 2.63 3.62 5.47 3.62 4.24-1.92 5.48-3.62 2.12-2.8 3.85-2.8 2.6 1.06 3.87 2.8 2.63 3.62 5.47 3.62 4.25-1.92 5.48-3.62 2.12-2.8 3.86-2.8a1 1 0 0 0 0-2m0 12.39c-2.84 0-4.24 1.93-5.48 3.63s-2.12 2.8-3.86 2.8-2.6-1.07-3.86-2.8-2.63-3.63-5.48-3.63-4.24 1.93-5.47 3.63-2.12 2.8-3.86 2.8-2.59-1.07-3.85-2.8-2.64-3.63-5.48-3.63-4.24 1.93-5.47 3.63-2.13 2.8-3.86 2.8-2.6-1.07-3.86-2.8S6.84 40.18 4 40.18a1 1 0 0 0 0 2c1.73 0 2.59 1.07 3.85 2.8s2.64 3.63 5.48 3.63 4.24-1.93 5.47-3.61 2.12-2.8 3.86-2.8 2.6 1.07 3.86 2.8 2.63 3.63 5.47 3.63 4.24-1.93 5.48-3.63 2.12-2.8 3.85-2.8 2.6 1.07 3.87 2.8 2.63 3.63 5.47 3.63 4.25-1.93 5.48-3.63 2.12-2.8 3.86-2.8a1 1 0 0 0 0-2zm0 12.4c-2.84 0-4.24 1.92-5.48 3.62S52.4 59 50.66 59s-2.6-1.06-3.86-2.8-2.63-3.62-5.48-3.62-4.24 1.92-5.47 3.62S33.73 59 32 59s-2.59-1.06-3.85-2.8-2.64-3.62-5.48-3.62-4.24 1.92-5.47 3.62-2.14 2.8-3.87 2.8-2.6-1.06-3.86-2.8S6.84 52.58 4 52.58a1 1 0 0 0 0 2c1.73 0 2.59 1.06 3.85 2.8S10.49 61 13.33 61s4.24-1.92 5.47-3.62 2.12-2.8 3.86-2.8 2.6 1.06 3.86 2.8S29.15 61 32 61s4.24-1.92 5.48-3.62 2.12-2.8 3.85-2.8 2.6 1.06 3.87 2.8S47.82 61 50.66 61s4.25-1.92 5.48-3.62 2.12-2.8 3.86-2.8a1 1 0 0 0 0-2" data-original="#000000" data-name="Layer 13"/></svg>