<svg version="1.0" xmlns="http://www.w3.org/2000/svg" width="213.333" height="213.333" viewBox="0 0 160 160"><path d="M76.15 27c-.85 2.45-1.6 3-4.1 3-4.7 0-4.45 5.25.45 8.15 4.6 2.7 4.4 4.65-.95 10.05-3.7 3.7-4.55 5.25-5.1 9.5l-.7 5.05-5.45-2.85c-12.8-6.75-28.7-.9-32.25 11.8-2.05 7.4-.7 11.7 7.25 23.55 5.9 8.85 8.2 15.2 9.25 26 1.2 11.8 5.6 13.8 31.85 14.5 19 .5 27.1-.45 33.75-3.85 4.25-2.15 4.35-2.45 5.9-13.9 1.3-9.9 2.8-13.7 9.7-24.25 8.05-12.3 9.1-19.4 4.15-27.45-5.65-9.1-20.85-12.1-31.05-6.1l-4.6 2.75-.65-5.05c-.55-4.15-1.5-5.95-5.15-9.85-5.35-5.7-5.45-6.9-.95-9.8 4.75-3.1 5.15-8.25.6-8.25-2.25 0-3.15-.65-4.1-3-.95-2.3-1.9-3-4-3-2.2 0-3.05.65-3.85 3m-17.3 38.35C67.5 69.55 75 80.85 75 89.6c0 5.35.85 6.4 5 6.4h3.75l.7-5.75c2.4-19.65 22.35-33.7 35.95-25.3 9.55 5.9 7.3 19.1-5.6 32.45l-5.7 5.9-12.3-.8c-15.3-.95-18.3-.95-33.6 0l-12.3.8-5.8-5.95c-20.25-20.85-10.4-43.75 13.75-32m43.75 52.8c7.7 3.65 4.2 4.35-22.4 4.4-25.05.05-27.9-.3-24.95-3.2 3.3-3.3 41-4.25 47.35-1.2"/><path d="M43.35 68.45c-13.6 5.9.1 29.55 17.1 29.55 9.65 0 10.95-.95 10.1-7.3-2.2-16.55-15.45-27.35-27.2-22.25m59.9.65c-7.9 3.95-12.7 11.2-13.85 21.2-.8 6.85.35 7.7 10.6 7.7h7.1l5.55-5.25c11.05-10.4 12.65-20.65 3.8-24.35-4.7-1.95-8.25-1.75-13.2.7"/></svg>