<svg version="1.0" xmlns="http://www.w3.org/2000/svg" width="718.667" height="718.667" viewBox="0 0 539 539"><path d="M296.5 11.7c-5.9 1.3-9.2 3-14.8 7.4-7.1 5.8-9.5 6.6-14.8 5-8-2.4-16.1.8-19 7.7-2.8 6.4-3.7 7.4-5.9 6.2-2.9-1.6-1.8-10.3 2-15.8 1.7-2.3 3-4.5 3-4.7 0-1.3-5-.2-7 1.5-1.3 1.1-3.3 2-4.5 2-3.5 0-10.5 6.1-13.2 11.5-4.8 9.5-9.3 11.6-16.4 7.6-4.9-2.8-13.7-3.8-17-2.1-1.3.7-5.9 1.6-10.3 1.9-9.8.7-10.1 1.4-3.1 8.3 3.1 3.1 5.5 6.5 5.5 7.6 0 2.5-4.1 5.9-8 6.6-1.7.3-4.4.9-6.1 1.2s-3.3 1.3-3.5 2.2c-.3 1-1 2.4-1.5 3.2s-1.7 3.1-2.8 5c-1 1.9-3.3 4.3-5.1 5.4-1.8 1-3.8 3.4-4.6 5.2-.8 1.9-1.9 3.4-2.4 3.4s-1.5 2-2.1 4.5c-1.3 5.2-4.4 7.3-13.9 9.5-3.5.8-6.6 2.3-8.6 4.2-4.8 4.5-9.5 2.3-9.7-4.7-.1-3.9-1.1-4.5-2.7-1.6-1.1 2.2-.5 4.4 2.3 8.2 2.8 3.9 2 8-2.1 10-1.8.9-6.6 4.8-10.6 8.7-6.8 6.4-7.5 7.3-8 11.8-.9 7-1.9 9.9-3.6 9.9-2.1 0-3.4 6.3-2.1 10.6 1.9 6.3-.4 12.5-3.8 10.4-.7-.4-1.1.7-1.1 3 0 2-.9 5.7-1.9 8.3-2.9 7.2-3.3 10.9-1.4 14.5.9 1.8 2 4.8 2.4 6.7.5 1.9 1.6 6.3 2.5 9.6 1.7 6.6 1.7 6.4-2.9 16.2-.8 1.8-.7 2.9.5 5 1.1 2 1.3 3.4.6 5.5-.7 2-.5 4 .6 7.4.9 2.6 1.6 6.4 1.6 8.5 0 3.4.7 4.6 5 8.8 5.5 5.3 6.3 8.9 3.9 17.3-1.7 6.3-.9 7.2 6.8 7.2 6.9 0 13.3 3 21 9.8 2.9 2.5 6.2 1.3 8.9-3.2 3.6-6 5.7-1.9 6.1 11.8.2 8 .6 10.8 1.9 12.2.9 1 2 4.5 2.4 8.1.7 6.9 2.3 11.1 6.5 17.8 2.5 3.9 2.9 5.8 3.7 17.4.9 12.7 2.1 17.8 6 25.5 2 4 2.2 5.7.8 6.6-.5.3-1.6-.8-2.4-2.4-2.8-5.3-7.8-5-7.5.4.1 1.1.1 2.6 0 3.2-.1 1.6-5.8 4.6-7.1 3.8-.6-.3-2-.8-3.1-1-3.9-.8-5.4-6.9-2-8 1.2-.3 2.1-1.2 2.1-1.9 0-.6 1.4-2 3-3 3.6-2.1 3.1-3.6-1.3-3.5-4.6.1-7.2 1.1-10.3 3.8-2.5 2.1-3 2.2-6.7 1.1-3.9-1.1-9.8-4.7-10.5-6.3-.2-.4-.9-.4-1.5 0-.7.4-.8 0-.3-1.3.4-1 .4-1.5 0-1.2-.6.7-4.4-3.3-4.4-4.7 0-.4-.9-1.8-2-3.2s-1.7-3-1.4-3.5c.7-1.1 2.1.1 2.6 2.2.5 2.5 7.7 4.7 12 3.7 3.4-.8 5.3-2.7 2.8-2.7-.5 0-.9-.5-.7-1.2.1-.7-1.6-1.7-4-2.3-5.8-1.4-9.3-4.7-9.3-8.7 0-1.8-.7-4.7-1.6-6.3-2.1-3.9-2.9-19.3-1.4-24.1.7-2 1.2-8.1 1.1-13.5-.1-8 .2-10.1 1.4-10.5 2.4-1 1.8-3.2-2-6.9-5.3-5.3-9.1-4-11.9 4.2-1.9 5.5-2.2 21.9-.5 27.3.6 1.9 1.4 9.8 1.8 17.5.6 11.4 1.1 14.9 2.9 18.6 1.2 2.5 2.2 5.6 2.2 7 0 3.8 29.2 32.6 35.6 35.2 7.1 2.8 11.9 1.9 16-3 1.8-2.1 3.4-3.6 3.7-3.3s5.6 13.5 11.8 29.5c10.6 27.4 11.7 29.7 19.7 41.5 8.4 12.4 8.5 12.5 15.6 15.7 3.9 1.8 17 7.8 29.1 13.4 19.3 8.9 24.6 10.9 43.5 16.1 11.8 3.2 24.6 6.8 28.4 7.9 14.8 4.4 39.9 7.9 57.2 7.9 17.9 0 21.3-.8 40.5-9.9l8.6-4 2.1-7.9c1.7-6 2.2-10.8 2.2-19.3 0-6.3.4-12.8.9-14.6.6-1.9.6-6.1 0-10.7-.8-6.6-.6-9.3 1.5-19.9 1.4-6.7 3.2-18.3 4.1-25.7.8-7.5 2.9-20.1 4.5-28 1.7-8 3.5-16.5 4-19 1.4-7.5 4.1-19 4.8-21 .4-1.1 4.8-5.2 9.7-9.2 12.9-10.5 20.2-25.6 22.6-46.8.6-5.2 2-12.3 3-15.7 4.4-14.6 3.6-15.3-23.1-21.8-8.5-2.1-16-4.3-16.6-4.9-2.9-2.9-4.4-11.4-3.5-19.6 1-8.7 0-16.6-3.7-30.1-2.6-9.5-2.8-13-1.5-30.9.5-8 1.1-17.9 1.1-22 .7-28.1.9-30.8 3-38.9 2.8-10.5 2.7-11.4-.3-18.8-1.3-3.4-2.7-8-3.1-10.3-.5-3.2-2.1-5.7-7-11-6.2-6.8-10.4-13.4-10.4-16.5 0-4.1-8.2-15.5-12.9-18-1.5-.7-6.8-2.1-11.7-3s-10.9-2.3-13.4-3c-10.4-3-16.1-3.8-26.5-3.9l-11-.1-6-4c-3.3-2.1-8-5.6-10.4-7.7-4.3-3.7-6.4-4.3-11.6-3.1m-26.8 27c.7.9 1 2.1.6 2.6-.4.6-1.3.1-2.4-1.1-1.1-1.4-2.8-2.2-4.8-2.2-1.7 0-3.1-.5-3.1-1.1 0-1.6 8.2-.1 9.7 1.8m13.4 3.4c-2.4 2.3-2.4 3.7.2 5.3 1.3.8 2 .8 2.5-.1 1.1-1.7 10.2-1 11.6.9 3.4 4.4 15.4 3.4 20.1-1.6 1.3-1.4 3.2-2.6 4.1-2.6 1.9 0 6.4 3.7 6.4 5.3 0 .5 1.2 2.1 2.6 3.4 3.4 3.1 2.4 4-2.6 2.3-4.7-1.5-9-.2-9 2.8 0 1.5 1 1.8 7.2 2.1 6.6.2 7.7.6 11.4 3.6 4.1 3.4 4.2 3.4 5.9 1.5 1-1.1 1.8-3.3 1.8-4.9 0-2.3.6-3 2.4-3.4 3.7-.7 5.4 3.9 4.2 11.1-.5 3.1-.9 5.8-.9 5.9 0 .2-1.6.3-3.5.3-3.8 0-7.9 4.7-6.8 7.7.7 1.7-2.4 5.3-4.6 5.3-1.2 0-1.2.3-.3 1.2s1.9.7 4.1-1c1.7-1.2 3.6-1.9 4.4-1.6s3.2-.5 5.3-1.8 6.1-2.5 8.9-2.8c4.9-.5 5-.6 4.7-3.5-.2-1.9-1.4-4-3.5-5.8-3.1-2.8-3.2-2.8-1.2-4.3 1.1-.9 1.9-2 1.7-2.5-.1-.5.9-.9 2.3-.9 2.3 0 2.5.4 2.5 4.4v4.5l4.7.7c2.9.4 5.3.3 6.5-.5 2.3-1.4 7.6-1.4 11.7 0l3.1 1.1-2.2 2.4c-1.6 1.6-3.4 2.4-6 2.4-2 0-4 .5-4.3 1.1-.4.6-1.2.8-1.9.6-1.5-.5-5.6 4.6-4.8 6 .4.6 1.8 1.4 3.1 1.8 1.6.5 2.1.4 1.7-.4-.4-.7-.1-.9.8-.5 3.3 1.3.6 10.3-3.1 10.4-.9 0-.9.8-.2 2.9 1 2.9 2.2 3.1 6.9 1.4.8-.3 2.4-.8 3.5-1 2.3-.4 3.3-1.3 4.9-4.5 2.2-4.4 14.6-3 14.6 1.6 0 .8-1.3 2.6-3 3.9-1.6 1.4-3 3.3-3 4.1 0 .9-.3 1.6-.7 1.7-1.7.1-4.5.8-5.8 1.2-2 .8-.2 8.5 2.4 10.3 2.2 1.6 3 4.1.9 2.7-2.1-1.2-3.9-1.5-10.8-1.7-3.6 0-7.1-.5-7.7-.9-.8-.5-1.3-.3-1.3.5s-.5.6-1.1-.5c-.8-1.3-.7-2.4.5-4.2 2.2-3.3 2.2-8.7 0-7.8-2.2.8-3.3-1.4-2.7-5.1.7-4.2-3.2-6.7-7.1-4.7-2.4 1.3-5.1.7-4.1-.9.3-.5 0-1.2-.6-1.6-.8-.4-.9-.3-.5.4.5.8-.3 1.2-2.2 1.2-1.8 0-3.2.6-3.6 1.6-.3.8-1 1.3-1.5 1s-1.1.6-1.4 1.9c-.2 1.4 0 2.8.4 3.1.5.3.9 2.1.9 4 0 3.3-.1 3.5-3 3-3.3-.5-3.2-.6-3.3 7.1-.1 3.8-.3 4.3-2.4 4.3-1.3 0-2.3-.5-2.3-1 0-.6.6-1 1.3-1 .8 0 1.2-1.6 1.2-4.5 0-4-.2-4.5-2.3-4.5-5.6 0-5.6-3.9.1-5.4 4.7-1.1 1.7-7.9-3.6-7.9-1.5 0-3.2-.6-3.8-1.3-1.2-1.5-5.4-2-4.5-.5.6.9-6.1.6-9.4-.4-1.1-.3-2-1.3-2-2.1 0-.9-1.1-1.4-3-1.4-2.3 0-3-.4-3-2 0-1.1-.4-2-.9-2-1.6 0-1.9-3.9-.5-5.7.7-1 1.4-1.4 1.4-1 0 1.8 5.6-6 5.7-8 .1-1.8-.3-2.2-2.2-2.1-1.3.1-2.3.5-2.3.8.2.7-1.4 4.4-2.1 5-.3.3-1.1 1.4-1.7 2.5-.7 1.2-2.2 2-3.8 2.1-3.4.1-4.2 1-2.6 3 1 1.1 1 1.8.3 2.2-1.4.9.5 3.6 2.5 3.8 3.6.3 4.2.5 4.2 1.4 0 .5-2.2 1-5 1-3.8 0-5-.4-5-1.5 0-.9-.9-1.5-2.5-1.5-1.8 0-2.3.4-1.9 1.5.4 1 0 1.5-1.1 1.5-1.3 0-1.6.6-1.1 2.6 1 3.6-.7 5.2-4.7 4.5-3.5-.6-8.7-4.2-8.7-5.9 0-.6-.6-1.2-1.2-1.5-1-.4-1-.7 0-1.8 1.9-2.1 1.6-4.4-.4-2.4-1.1 1.1-2.8 1.4-5.5 1.1-2.1-.3-4.1-.1-4.4.5-.4.5.4.9 1.6.9 1.8 0 1.9.2.9 1.5-.7.8-.9 1.5-.4 1.6.5 0 .1.4-.9.8-1.7.6-1.7.8.1 3.2 2.1 2.5 4.7 10.7 3.8 11.6-.2.3-1.5-.5-2.8-1.7-3.4-3.2-7.6-5.2-8.3-4-.4.6-1.1.8-1.6.5-1.1-.8-1.2-4.5-.1-4.5.5 0 2-1.8 3.5-4 2.5-3.8 2.5-4 .6-4-1.4 0-1.9-.6-1.7-1.8.2-.9 1.1-1.7 2-1.7s2-.4 2.4-.8.2-.7-.5-.7c-.9 0-1-.9-.5-3.3.4-1.7.7-3.8.7-4.5 0-.6.6-1.2 1.3-1.2 1.5 0 2.3-3.2 1.8-7-.4-2.3 0-3.1 1.8-4.1 2.3-1.2 7.8-6.8 7.8-8.1 0-.3 2.7-.4 6-.1 8.1.8 9-1.2 3-6.8-4.7-4.4-4.9-4.5-7.6-2.4-2.5 1.9-9.8 1.9-11.7 0-.8-.8-1.7-1.2-2-.9s-.8.1-1.2-.5c-.3-.6-.1-1.1.4-1.1.6 0 1.1-.7 1.1-1.5 0-1.1.7-1.4 2.3-1 1.5.4 3.4-.3 6.2-2.4 2.2-1.7 5.1-3.1 6.4-3.1h2.5zm53.9 2.4c0 .3-.2.5-.5.5s-.5-.2-.5-.5.2-.5.5-.5.5.2.5.5m6.3 2.1c1.8.9 3.6 2.3 4 3.1.5.7 1.2 1.1 1.8.8.5-.4.9.3.9 1.4 0 2.6-1.4 2.7-4 .1-1.1-1.1-2.4-2-3-2-.5 0-1-.5-1-1 0-.6-.6-1-1.4-1s-1.6-.7-2-1.5c-.7-1.9.7-1.9 4.7.1m38.2 1c3.5 1.4 3.6 1.6 1.9 2.9-1.8 1.3-1.8 1.4.6 2.4 1.4.5 2.3 1 2 1.1s-1.5.3-2.7.6c-1.2.2-2.6.5-3 .6s-1.9-.4-3.2-1.1c-2.1-1.2-2.9-1.1-5.9.5-4 2.2-6.5 1.1-7-3-.6-4.9 9.6-7.3 17.3-4M258 49.5c0 .8-.4 1.5-1 1.5-.5 0-1-.7-1-1.5s.5-1.5 1-1.5c.6 0 1 .7 1 1.5m9.2 6c-.2 1.5-1.6 3.2-3.3 4-4.2 2.2-7.3 11.5-3.9 11.5.6 0 1 .7 1 1.5 0 1.8-4 2.9-8.3 2.2-1.7-.2-4.7.2-6.6.9-1.8.8-4.8 1.4-6.7 1.4s-4.1.8-5.1 1.9c-2.4 2.4-5.6 4.1-8.7 4.3-2.3.2-2.4.4-1.1 1.8.8.9 1.5 2.8 1.5 4.2 0 2.2.5 2.6 4 3.2 2.2.3 4 .9 4 1.3 0 2.1-2.6 7.2-3.9 7.7-.9.3-3.7 1.9-6.3 3.6-2.7 1.6-5.5 2.7-6.3 2.4-1.8-.7-2-5-.4-6 1.5-.9-2.7-3.3-5.8-3.4-1.3 0-2.3-.5-2.3-1 0-.6-1.1-1.5-2.5-2s-2.5-1.3-2.5-1.7c0-1.1 5.6-7 7.1-7.5 2.5-.8-.1-4.7-3.7-5.4-3-.6-4-.2-6.7 2.3-1.8 1.7-4.4 3.3-5.8 3.7-2.2.5-2.5 1-2.1 3.1.2 1.4 0 2.5-.6 2.5s-1.3.8-1.6 1.7c-.4 1-2.4 3.1-4.6 4.6-4.3 3-4.8 4.1-2.6 6.2 1.4 1.4 3.2 1.5 5.2.3.6-.4 1.9-.2 2.9.6 2.8 2-4.5 7.6-9.1 6.9-3.1-.5-3.3-.4-4.4 3.6-.8 2.9-1.6 4.1-3 4.1-1.5 0-1.8.7-1.8 4.2.1 7.4-1.5 9.8-6.2 9.8-4.8 0-4.9-2.9-.4-6.4 2.8-2.1 5.6-7 4.6-8-1.5-1.6-.9-16.4.6-15.8 1 .3 1.3.1.8-.6-.4-.7-.3-1.2.2-1.2s1.5-1.2 2.3-2.8c.8-1.5 2.4-3.8 3.6-5.1 1.2-1.4 2-2.8 1.8-3.1-.5-.8-2.8-6.3-2.9-7-.1-.3-.5-1.1-.9-1.8-.6-.8-.2-1.2 1.1-1.2 1 0 2.5 1.1 3.2 2.5 1.8 3.4 2.6 3.2 7.4-1.9 4-4.3 6.7-5.4 13.9-5.6 1.8 0 2.4-3.4.7-4.5-1.9-1.2-1-3.4 1.9-4.9 2.6-1.4 3-1.4 4.6.4 2.2 2.4 4.5 2.6 4.5.4 0-1.8 2.5-4.6 3.3-3.7.4.3 3 .5 5.8.4 5.6-.1 8.1-1.6 10.2-6 2.3-4.9 12.5-3.4 14.8 2 1.1 2.7 1.4 2.9 2.4 1.5.7-.8 1.5-1.3 1.8-.9.4.3 2.4-.5 4.4-1.9 4-2.7 9.4-5.7 10.4-5.8.3 0 .4 1.1.1 2.5m12.1 4.1c-.8 2.2-2.3.6-2.3-2.4.1-2.5.2-2.6 1.5-.9.7 1.1 1.1 2.5.8 3.3m97.7-1.1c0 .3-.2.5-.5.5s-.5-.2-.5-.5.2-.5.5-.5.5.2.5.5m-177.7 6.4c3.8 2 3.4 3.2-1 2.5-2.1-.3-3.9-.7-4.1-.9-.5-.5 1.1-3.6 1.7-3.3.3.2 1.8 1 3.4 1.7m176.4.8c-.4.3-1 .3-1.4 0-.3-.4 0-.7.7-.7s1 .3.7.7m-197.4 14c-.7.2-1.9.2-2.5 0-.7-.3-.2-.5 1.2-.5s1.9.2 1.3.5m87.5 1.1c.6 1.8-1.5 1.4-2.2-.4-.4-1-.1-1.4.6-1.2.6.2 1.4 1 1.6 1.6M249.5 84c1.1 1.8-.5 3.1-2.6 2-1.1-.6-1.7-1.5-1.4-2.1.8-1.2 3.2-1.2 4 .1M233 88.5c0 .3-.2.5-.5.5s-.5-.2-.5-.5.2-.5.5-.5.5.2.5.5m27 3c0 .3-.2.5-.5.5s-.5-.2-.5-.5.2-.5.5-.5.5.2.5.5m-9 1c0 .3-.2.5-.5.5s-.5-.2-.5-.5.2-.5.5-.5.5.2.5.5m-6.6 3.3c.8 3 .5 8.2-.5 8.2-3.7 0-8.5-7-6.4-9.2 1.3-1.3 6.4-.6 6.9 1m31.3-1.1c-.4.3-1 .3-1.4 0-.3-.4 0-.7.7-.7s1 .3.7.7m-109.1 6c.7 2.5-.5 4.7-1.3 2.5-.4-1.1-.8-1-2.2.1-2.7 2.5-6.5 3.3-5.8 1.2.4-.9.7-2 .7-2.4 0-4.4 7.6-5.7 8.6-1.4m149.3-.2c.3.5-.7 1.6-2.1 2.4-2.8 1.6-6.7-.6-5.3-3 .8-1.2 6.8-.8 7.4.6m-79.4 4.4c0 2.3-2.2 2.4-2.8.1-.4-1.6-.1-2 1.1-1.8.9.2 1.7 1 1.7 1.7m100.5-1.4c0 .3-.2.5-.5.5s-.5-.2-.5-.5.2-.5.5-.5.5.2.5.5m-84.9 4.8c.9 3.4-.1 4-6.7 3.4-4-.3-4.5-.5-2.6-1.2 1.6-.5 2.2-1.3 1.9-2.6-.6-2.1.7-2.9 4.2-2.6 1.8.1 2.7 1 3.2 3m-43.1-1.7c0 1.5-2.2 4.4-3.5 4.4-.9 0-1.3 1.1-1.3 3.2.1 4.7-1.1 9.1-2.7 10.4-1.7 1.3-2 3.4-.4 3.4.5 0 .8.4.4.9-.3.5.4 1.2 1.5 1.6 1.1.3 2 1.3 2 2.1s.6 1.4 1.4 1.4c1.5 0 1-4.6-.6-5.6-.5-.3.4-1.7 1.9-3.2 4.1-3.8 21.1-4 18.8-.2-.4.6-.3 1 .2.9.4-.1 2 .3 3.5.9 2.2.9 3.9.7 8.8-.9 6.1-2 6.1-2 8.6 0 1.4 1.1 4.9 2.7 7.7 3.7 2.9.9 6.2 2.3 7.4 3 1.8 1.1 3.2 1.2 7 .3 8.6-1.9 22.3-1.9 26.8 0 2.2 1 4.5 1.6 5 1.4.6-.2 2 .5 3.1 1.5 2.5 2.4 6.8 3.3 16.1 3.6 7.1.2 7.2.2 6.7-2.1-.5-2-.2-2.3 2-2.3 1.5 0 2.9-.7 3.2-1.5.4-.8 1.1-1.5 1.7-1.5s.8.3.4.6c-.8.9 3.3 5.8 8.1 9.6 2.7 2.2 2.9 2.2 3.4 0 .7-2.6 10.2-4.6 14.7-3.1 1.8.6 5.1.9 7.3.6 3.3-.4 4.8-.1 7.7 1.9 2 1.3 3.9 2.4 4.3 2.4 1.6 0 7.9 5 11.5 9.2 2.1 2.4 4.8 5.4 5.9 6.6 1.2 1.2 2.7 4.2 3.4 6.5s1.9 5.1 2.5 6.2c2 3.3 2.4 7.7 1.3 14-1.4 7.5-2.9 9.3-6.5 7.4-4-2.2-53.5-1.9-54.9.2-.3.5-1.9.6-3.7.4-2.5-.4-2.3-.2 1.3 1.1 5.5 1.9 13.4 2.1 36 .8 18.5-1.1 22.5-.5 29.9 4.3 2.3 1.5 2.4 1.6.6 2.9-1 .8-3.1 1.4-4.6 1.4-1.4 0-3.2.7-4 1.6-1.9 2.3.5 3.4 5.7 2.7s7.7.7 10.1 5.6l2 4.1-2.3 1.5c-1.7 1.1-5.1 1.4-13.1 1.4-12.4 0-14.1.4-14.9 3.7s-4.7 3.2-6.2-.1c-2-4.5-5.4-2.3-9.8 6.3-1.2 2.3 1 3.3 4.4 2.1 1.8-.6 3.2-1.5 3.2-2s1.1-.4 2.4.1c1.7.6 2.6.5 3-.3.8-2.1 2.6 1.5 2.6 5.5 0 2.9-.3 3.6-1.5 3.2-1.5-.6-1.9.4-1.6 3.8.1 1-.4 1.8-1.2 1.8-1.7 0-4 4.7-2.7 5.5.6.3 1.5-.5 2.1-1.9.9-1.8 1.7-2.3 3.5-2 1.4.3 2.6-.2 3.1-1.1.6-1 3-1.6 7.5-1.9 3.6-.3 8.8-1.2 11.5-2.2 7.2-2.5 9.8-1.5 13 5.1 1.5 3 2.5 5.7 2.2 5.9-.7.8-17.6 2.6-23.7 2.6-3.7 0-6.2.6-8 1.9-2.9 2-10.1 4.3-11.3 3.6-.4-.3-.5-1.4-.2-2.5.8-3.1-.5-2.4-2.3 1.2C373 267 366.3 272 361 272c-2.7 0-7.1.5-9.8 1.2-6.7 1.5-15.8-1.8-17.4-6.4-.6-1.5-1.4-2.8-1.9-2.8s-3.2-1.1-6.1-2.4c-10.4-4.7-28.6-6.8-36.3-4.2-2.7 1-7.8 2.1-11.4 2.6-3.6.4-8.8 1.8-11.6 3-2.7 1.2-7.9 3.1-11.5 4.2s-10.3 3.5-15 5.3l-8.5 3.3-31.5-.5c-36.3-.6-37.1-.8-33.6-7.4 2-3.8 3-11.9 1.5-11.9-.8 0-.9-1.2-.4-4.3.9-4.4 1.4-9.7 1.8-18.2.2-4.6.4-5 3-5.3 3.4-.4 3.7-4.1.7-7.9-1.1-1.4-2-3.5-2-4.7 0-3.4-1.2-6.6-2.1-6-.5.3-.9-.2-.9-1.1s-.4-1.4-.9-1c-.5.3-1.3 0-1.6-.6-.4-.5-1.3-.8-2.1-.5-1.8.7-2.8-1.2-3-5.9 0-2.2-.4-5.7-.9-7.8-.6-3.1-.5-3.7.9-3.7.9 0 2.4-1.7 3.3-3.7 2.1-4.3 8.6-9.2 12.4-9.3 1.4 0 2.9-.3 3.3-.7.3-.4 1.6-.8 2.9-1 4.6-.7 8.6-6.5 8.7-12.4 0-.8 1.4-2.5 3-3.7 2.1-1.6 3-3.1 3-5 0-1.5.7-3.8 1.6-5.1 1.3-1.8 1.4-2.8.5-4.7-.6-1.4-1.1-3.8-1.1-5.4 0-1.7-.7-3.3-1.7-3.8-1-.6-1.4-1.6-1-2.6s1.1-1.4 1.7-1.1c.5.3 1-.1 1-.9 0-.9-.4-1.6-1-1.6-1.6 0-1.1-4.7.6-5.4.8-.3 1.2-1.1.9-1.6-.8-1.4 3-9.7 5.9-12.7 1.9-2.1 4.6-3.1 4.6-1.7m52.8 1.3c.3.8-.1 1.2-.9.9-.7-.2-1.5-1-1.7-1.7-.3-.8.1-1.2.9-.9.7.2 1.5 1 1.7 1.7m-106.3 5.9c.2 5.8.1 6.3-1.6 5.9-1.1-.3-1.9-.1-1.9.4s-.6.9-1.4.9-1.6.7-2 1.5c-.3.8-1.5 1.5-2.7 1.5-1.4 0-1.9-.5-1.6-1.5.9-2.1-.9-2.8-4.9-2.1-2.5.5-3.4 1.2-3.4 2.7 0 2.4-5.8 8-7.9 7.6-.7-.1-1.5.6-1.7 1.6-.3 2.2-1.4 3.6-1.4 1.8 0-.8-.5-.9-1.6-.3-1.7.9-6.4.4-6.4-.7 0-1.6 3.4-5.3 6.3-6.7 1.8-.9 4.2-2.7 5.4-4s3.1-2.4 4.1-2.4c1.1 0 2.7-1.1 3.6-2.5 1.1-1.6 2.6-2.5 4.4-2.5 5.2 0 7.1-1.1 8.3-4.7.9-2.8 1.5-3.4 3.6-3.1 2.4.3 2.6.7 2.8 6.6m170.9 1.7c0 5.3-.3 6-2 6-1.5 0-2-.9-2.4-4.5-.7-6.3-.2-8.2 2.3-7.8 1.8.3 2.1 1 2.1 6.3m-86.4-4c0 .3-.2.5-.5.5s-.5-.2-.5-.5.2-.5.5-.5.5.2.5.5m38 2.5c1.1.7 1.1 1 .2 1-.7 0-1 .4-.7 1 .9 1.5-1.1 1.2-2.4-.3-1.8-2.3.2-3.4 2.9-1.7m64-.5c0 .3-.2.5-.5.5s-.5-.2-.5-.5.2-.5.5-.5.5.2.5.5M240 115c0 .5-1.1 1-2.4 1s-2.9.7-3.6 1.5c-1.4 1.7-8.5 2.1-7.5.5.3-.6 1.5-1 2.7-1 1.4 0 1.8-.5 1.4-1.5-.4-1.2.4-1.5 4.4-1.5 2.8 0 5 .4 5 1m43.5 0c.3.5-.1 1-.9 1-.9 0-1.6-.5-1.6-1 0-.6.4-1 .9-1 .6 0 1.3.4 1.6 1m-6.8 4.6c-.3.3-1.2.4-1.9.1-.8-.3-.5-.6.6-.6 1.1-.1 1.7.2 1.3.5m7.8.4c-.3.5-.1 1 .5 1s.9.4.5 1c-.8 1.3-3.2.2-3.2-1.5 0-.8.7-1.5 1.4-1.5.8 0 1.1.4.8 1m20.7 2.2c2.2 2.2.7 2.3-3.9.2-2.3-1.1-3-1.9-2.2-2.5 1.5-.9 3.7-.1 6.1 2.3m12.3 5.9c0 .7-.8 1.5-1.7 1.7-1.8.3-2.5-1.8-1.1-3.2 1-1 2.8-.1 2.8 1.5M191 133.5c0 1.7-2.2 3.5-4.2 3.5-1 0-1.8.4-1.8.8 0 .5-1.1 1.5-2.5 2.2s-2.5 2.2-2.5 3.2-.2 1.8-.4 1.8-1.1.3-1.9.6c-1 .3-1.7-.3-2.1-1.9-.3-1.4-.8-3.2-1.1-4-.9-2.1 4.2-7.7 7.1-7.7 1.3 0 2.4-.4 2.4-.9s1-1.1 2.3-1.3c2.2-.4 4.7 1.6 4.7 3.7m-32 2.6c0 .5.4.7 1 .4.5-.3.7 0 .4.8-.5 1.4-6.2 3.2-7.1 2.3-.6-.6 3.5-4.6 4.7-4.6.6 0 1 .5 1 1.1m-38 .4c0 .3-.2.5-.5.5s-.5-.2-.5-.5.2-.5.5-.5.5.2.5.5m7.7 3.3c.6.4 1.3 1.6 1.5 2.7.4 2.7-4.1 3.4-5.9.9-2.1-2.8 1.2-5.6 4.4-3.6m23.3.6c0 1.4-8.8 9.9-11.4 10.9-3.1 1.2-4.8-.3-4-3.7.8-4 3.1-6.6 5.8-6.6 1.2 0 2.8-.5 3.6-1 2.2-1.4 6-1.2 6 .4m-16.5 3.6c.3.5.2 1-.4 1-.5 0-1.3-.5-1.6-1-.3-.6-.2-1 .4-1 .5 0 1.3.4 1.6 1m33.1 2.4c.1 0 1.1 2 2.3 4.3 2.1 4.2 4 5.6 4.2 3 0-.6.5.1 1.1 1.6.9 2.5.6 3.1-2.7 6.2-2 1.9-4.1 3.5-4.7 3.5-.5 0-.7.7-.4 1.6.3.8.2 1.2-.4.9s-1-1.3-1-2c0-4.3-8.6-4.1-12 .3-3.2 4-.6 6.3 4.5 3.9 4.2-2 5.5-2.1 5.5-.5 0 2.8-3.3 4.8-8.2 4.8-3.5 0-5.8.6-7.5 2-1.4 1.1-3.6 2-4.9 2-1.6 0-2.8 1-3.9 3-1.1 2.1-2.3 3-4 3-3.6 0-7.5 1.8-7.5 3.4 0 .8-.8 1.7-1.7 2.1-3.2 1.1-6.3 7.2-6.3 12.4 0 4.6-2.7 9-5.5 9-.5 0-1 .4-1.1 1.1-.2.6-.1.7.3 0 .2-.5.9-.8 1.4-.4 1.4.8 1.1 3.4-.4 3.4q-1.35 0-.9 3c.3 1.8 1 3 1.9 3 1.1 0 1.4.7 1 2.2-.4 1.2-.2 2.7.4 3.4 1.5 1.9 0 6.4-2.2 6.4-1.5 0-1.8.8-1.8 5.2.1 4.5-1.9 12.8-2 8.9-.1-1-.4-1.1-1.5-.2s-1.6.9-2.2-.1c-1.6-2.6.5-12.2 3-14 .6-.4.1-.8-1.1-.8-3 0-2.7-4.8.3-5.3.5-.1.9-1.6 1-3.4.1-2.7-.3-3.2-2.9-3.6-4.6-.6-7.7.3-7.7 2.3 0 2.9-1.1 5-2.5 5-1.8 0-2.4-2-1.4-4.7.4-1.1 1.3-5 1.9-8.5.7-3.4 1.7-7 2.5-7.8 2.1-2.5 2.8-8.5 1.1-9.9-1.6-1.4-1.3-5 .5-6.2.6-.4.8-1.2.4-1.9-2-3.2 4.9-12.9 11-15.4 3.5-1.5 7.8-8.5 6.5-10.6-1.9-3.1 5.1-8.9 10.9-9 4.1 0 3.5.9-1.1 2l-3.3.8 3.2.1c2.1.1 3.6.8 4.3 2.1 1.6 3 3.9 2.4 5.6-1.5 1.2-2.9 1.9-3.5 4.2-3.3 1.5.1 3.7-.4 4.9-1 1.2-.7 3-1.2 4-1.2s3.8-1.3 6.3-2.9c3.7-2.4 7.2-3.1 8.6-1.7m-54.2 3.2c2 .8 1.1 2.4-1.5 2.4-1.9 0-2.5-1.1-1.2-2.3.8-.8.8-.8 2.7-.1m35.1 43c2.2 4.7.4 15.4-2.7 15.4-1 0-2.1-.7-2.4-1.5-.4-.8-1.8-1.5-3.1-1.5-6.5 0-7-7.1-1-13.3 4.8-5 6.4-4.9 9.2.9M89.1 191c2 1.1 2.6 4.5.9 5.5-1.8 1.1-5-1.5-5-4 0-2.7 1.1-3.1 4.1-1.5m42.7 12.2c.6.7 1.2 2.6 1.4 4.3.2 2.5.8 3 3.5 3.3 2.3.2 3.3.9 3.7 2.8.4 1.3 1.2 2.4 2 2.4 1.7 0 3.8-2.4 2.9-3.3-.3-.4-.1-.7.6-.7s.9-.5.5-1.2-.3-.8.4-.4 1.2 1.3 1.2 2c0 1.4 7.4 4.1 10.3 3.7 2.1-.3 2.2 2.7.3 8.4-.8 2.2-1.4 6.4-1.5 9.3-.1 7.7-5.1 11.3-5.1 3.7 0-1.9-.4-3.6-.9-3.9-.5-.4-1.2-2.4-1.6-4.6s-1.2-4-1.9-4-1.9-1.1-2.6-2.5c-2.3-4.3-4.5-2.7-4.5 3 0 3.7-.6 5.8-2.2 7.9-1.7 2.2-2.3 4.2-2.3 8.2 0 3.7-.5 5.6-1.5 6.2-2.1 1.1-.9 4.2 1.6 4.2 1 0 2.2 0 2.6.1s1.4-1.2 2.3-2.7c2.9-5.4 3-5.5 5.1-4.4 1.2.7 1.9 2.1 1.9 4s.7 3.3 2.1 4c1.4.8 1.8 1.7 1.4 2.8-.4.9-.7 2.4-.6 3.2.2 2.7.1 10.4-.2 10.6-3.8 3.1-9.5-2.4-7.6-7.4.7-1.8.5-3.1-.6-4.8-1.5-2.3-3.4-3.2-3.6-1.7 0 .5-.2 3.7-.5 7.2-.4 7-2.4 10.5-4.6 8.3-2.1-2.1-4.2-1.3-5.9 2.1-2.5 5-5.4 4.4-5-1.1.1-2.8-.3-5-1.2-6-2.2-2.6-.4-7.7 3.3-9.4 4-1.7 3.8-3.2-.3-2.4-6.9 1.3-9.3-5.4-3.7-10 5.4-4.5 5.5-4.6 5.8-10.3.1-3 .9-6.8 1.8-8.5 1.8-3.5 1.9-12.5.2-17.2-1.7-4.8.4-8.3 3-5.2m37.9 15c-.3.8-.6.5-.6-.6-.1-1.1.2-1.7.5-1.3.3.3.4 1.2.1 1.9m-41.7 2.3c0 .3-.2.5-.5.5s-.5-.2-.5-.5.2-.5.5-.5.5.2.5.5m.7 3.2c-.4.3-.7 0-.7-.7s.3-1 .7-.7c.3.4.3 1 0 1.4m-6.7 9.2c0 .6-.4 1.3-1 1.6-.5.3-1-.1-1-.9 0-.9.5-1.6 1-1.6.6 0 1 .4 1 .9m-14 2.5c0 .3-.5.8-1.2 1.2s-.8.3-.4-.4c.7-1.2 1.6-1.6 1.6-.8m48.2 19.4c.2 1.6.2 3.4 0 4.1-.7 2.2-3.2-.9-3.2-4 0-3.8 2.6-3.8 3.2-.1m241.6 5.9c.2 1.6-.4 2.4-3.2 3.3-5.8 1.9-8.1-1.6-2.8-4.4 3.6-1.9 5.6-1.5 6 1.1m26.1.2c1 .6 1.2 2.2.7 5.7-.4 2.7-.7 6.2-.9 7.9l-.2 3 11 .2c6.1.1 11.6.2 12.3.3 1.5 0 1.6 5.2.1 6.7-.6.6-1.8.9-2.7.6-.8-.4-2.1.2-2.8 1.2-1.3 1.8-1.4 1.8-1.4.1 0-1.2-.5-1.6-1.5-1.3-.8.4-1.7.2-2-.3-.4-.6-1.5-1-2.6-1s-1.9-.7-1.9-1.6c0-1.2-.7-1.4-2.9-.9-2.7.6-3.7-.1-10-6.4-3.9-3.9-7.7-7.1-8.5-7.1s-1.6-.5-1.8-1c-.2-.6-2.3-1.4-4.8-1.9-4.7-.8-4.6-.9 3-3.4 5.1-1.6 14.8-2.1 16.9-.8m-105.7 2c-1.2.7-6.2.4-6.2-.5 0-.2 1.7-.4 3.8-.4 2.3 0 3.2.3 2.4.9m6.3 1.1c1.9.8 1.9.9-.2.9-1.2.1-2.5-.4-2.8-.9-.7-1.2.2-1.2 3 0m117.2 1.7c-.4.3-1 .3-1.4 0-.3-.4 0-.7.7-.7s1 .3.7.7m-122.2 2.8c19.2 7.7 27.5 17.4 22.7 26.2-1.6 2.9-1.5 4.8.4 6.4 3.1 2.6.4 10.2-4.2 11.9-1.9.8-2.3 1.9-2.8 8.2-1.1 11.3-1.4 12.1-6.4 17.5-15.4 16.7-47.3 19.4-62.5 5.4-8.2-7.6-17.7-27.1-15.1-31.2.3-.6-.2-3.1-1.1-5.8-2.2-5.9-.1-12.1 4-12.1 1.5 0 2.6-.9 3.4-2.9 2.1-4.9 10.1-9.7 18.7-11.1 11.2-1.8 23.4 4.8 23.4 12.7 0 1.3.4 2.3.9 2.3.4 0 2.5 1.1 4.5 2.5l3.7 2.5 1-2.4c1.3-2.9 4.8-4.6 9.3-4.6 5.5 0 13.4-11 9-12.7-.8-.3-1.4-1.6-1.4-3 0-1.3.4-2.1 1-1.8.5.3.7 0 .4-.8-.4-1.2-1.4-1.3-4.6-.5-2.7.6-4.5.5-5.2-.2-1.9-1.9-7.9-1.1-11.1 1.5l-2.9 2.4 2.3 3.1c1.6 2.3 2.1 3.9 1.6 6-1 4.8-5.4 4.7-5.9-.1-.2-1.3-.6-3.4-1-4.7-.5-1.5-.3-2.2.6-2.2 3.2-.1-4.9-5-8.3-5-2 0-5.3-.7-7.3-1.5-2.4-1-4.2-1.2-5.4-.7-.9.5-2.2.8-2.8.5-1.2-.4-10.5 3.4-11.4 4.6-.3.4-2.6 2-5.2 3.5-2.7 1.5-4.8 3.4-4.8 4.1s-.8 1.2-1.7 1c-2.5-.4-1.9-3.9 1.4-8.1 4.9-6 21.4-12.2 29.7-11.1 2.8.4 4.7.1 6.1-1 2.6-2 21.2-1.1 27 1.2m128.5-1c0 .3-.2.5-.5.5s-.5-.2-.5-.5.2-.5.5-.5.5.2.5.5m-49.6 2c1.2 1.2 2 1.3 4 .4 4.3-2 8 3.6 5.5 8.3-1 1.8-.8 2.4.7 3.5 4.5 3.2 5.4 4.4 5.4 7.2 0 5.4.9 6.4 3.7 4.6 3.6-2.4 5.3-1.3 5.3 3.5 0 2.2 1.1 10.2 2.5 17.6 1.4 7.8 2.4 16.5 2.3 20.5l-.2 6.9-3.5 1c-16.1 4.5-37.4-6.7-39.4-20.7l-.5-3.2 6.5.2c4.9.2 6.8.7 7.8 2 1.1 1.6 1.9 1.7 5.2.8 2.1-.6 5-1.1 6.5-1.1 3.4 0 3.9-.8 4.7-8.1.8-6.4-.3-7.6-4-4.3-2.6 2.4-8.8 2.8-13.9 1-2.5-.9-5.4-1.6-6.6-1.6-1.1 0-3.1-1.2-4.5-2.6-1.3-1.4-3.1-2.3-4-2.1-3.5.9-5.4-9.5-2.2-11.8 1.4-1 1.5-1.7.6-3.7-3.9-8.6 11.8-24.5 18.1-18.3m56.1 7.3c2.9 5.7 3 12.7.7 27.2-.9 5.3-.9 5-1.1-4.5-.1-5.5-.8-12.4-1.6-15.4-.7-3-1.1-6.6-.8-8.1s0-3.1-.6-3.4c-.6-.4-1.1-1.2-1.1-1.9 0-1.8 1.7.4 4.5 6.1m-314.6-1.7c3.2-1.4 12.6-.7 13.7 1 .3.5.3.9 0 .9-.2 0-3.8.7-7.8 1.5-4 .9-8.4 1.7-9.8 1.9s-3.8.9-5.3 1.5c-3.6 1.4-3.7 1.4-3.7-.4 0-.8.6-1.5 1.3-1.5.6 0 2.5-1.4 4.1-3 2-2.1 3.2-2.7 3.7-1.9.5.9 1.4.9 3.8 0m177.4 5.6c.8 2.2 1.2 4.6.7 5.8-1.8 5-8.7 1.1-7.4-4.2 1.5-6.3 4.5-7 6.7-1.6m-136 3.3c7.6.6 15.9 1.5 18.5 2.1 2.6.5 6.5 1 8.7 1 5 0 7.7.8 7 2-.4.5.7 1.4 2.2 2.1s3.1 1.7 3.4 2.2c.8 1 5.9 1.7 5.9.8 0-.3-1.5-1.8-3.2-3.4l-3.3-2.9 7.3.4c10.5.6 14.2 5.2 14.2 17.4 0 5.3 4.6 21 7.4 25.3 1.3 1.9 2.7 4.6 3.1 6 2 6.6 14.5 15.7 28.6 20.6 6.6 2.4 8.3 2.6 16.4 2 11.6-.8 16.6-1.5 18-2.5.5-.4 3.7-1.8 7-3.1s6.2-2.6 6.5-2.9 1.7-1.2 3.3-2c1.5-.8 2.7-1.8 2.7-2.3 0-.4 1.1-1.8 2.5-3s2.5-2.5 2.5-2.9c0-.3 1.5-3.2 3.4-6.2 6.4-10.8 11.5-33.9 9.2-42.4-1.8-6.8-.7-8.4 6-9 6.7-.5 7.5.2 7.7 7.8.2 5.6.8 7.4 5 14.4 2.7 4.7 5.1 10.2 5.7 13.4 2.9 15.6 3.9 17.2 13.4 22.9 10.8 6.4 18.2 8.5 28 8 4.2-.2 7.6 0 7.6.4 0 .5-.4.8-.8.8-2.2 0-11.2 18-11.2 22.3 0 .9-.8 2-1.7 2.6-1.6.8-1.8 2.6-1.8 12.8v11.8H405c-5.2.1-5.6-.1-10.9-5.2-3.1-2.9-5.9-5.3-6.4-5.3-1 0-3.7-2.6-3.7-3.5 0-.3 1.6-1.9 3.5-3.6 5.4-4.8 7.6-9.2 7.8-15.3.1-6.2-2.1-10.5-3.5-6.7-.4 1.2-.5 2.7-.2 3.5.3.9-1.1 3.1-3.5 5.5-2.3 2.3-4.1 4.5-4.1 4.9 0 3.2-12.3 8.2-13.8 5.7-.4-.6-2.2-2-3.9-3-3.5-2.1-4.2-3.5-1.8-3.5 1.8 0 2-3.4.3-4.8-2.7-2-7.8-.3-7.8 2.7 0 1.5-1 1.7-6.5 1.8-8.3.1-16.2 3.6-15.7 7 .2 1.3-.1 2.3-.5 2.3-1.9 0-5.3-3.2-5.3-4.9 0-1.1-.7-2.2-1.6-2.5-1.1-.4-1.3-1-.6-1.9.5-.6 1.2-3.1 1.5-5.5.5-4 .4-4.2-2.2-4.2-2.2 0-6.4 5.4-5.3 6.8.1.1-.4 1.5-1.1 3-.8 1.5-1.3 3.1-1.1 3.7.1.5.5 2.7.9 4.7.3 2.1 1.1 3.8 1.8 3.8s2.3.9 3.7 2c4 3.2 8.7 2.7 9.5-1 .9-4 1.6-4.3 6.9-2.9 4 1 5 .9 8.9-1 5.7-2.7 7.8-2.7 10.7.4 2.1 2.2 2.2 2.9 1.2 4.5-1.6 2.6 2.3 5.3 7 4.8 4.1-.4 4.6 1.4 2.4 7.9s-2.1 7 2.2 7.8c2 .4 5.1 1.5 6.7 2.5 1.7 1.1 4 1.9 5 1.9 5.4-.1 14.2 1.4 15.3 2.5 1.3 1.3 3.6 9.5 2.9 10.2-.6.6-6.7-2-6.7-2.8 0-1.1-25.8-1-26.5.1-.3.6-1.3 1-2.3 1-20.1.1-32.3 1.7-46.7 6-3.8 1.2-9.4 2.8-12.3 3.6-12 3.4-15.4 9.5-4.1 7.5 3-.5 9.2-1.4 13.9-1.9 4.8-.5 10.7-2 13.5-3.2 4.2-2 7.6-2.4 21.5-3.1 9.1-.5 19.7-1.2 23.5-1.6 6.8-.7 13.3.2 14.6 2.1.4.5 2.4.7 4.5.5 2.2-.3 4.9-.2 6 .3l2.2.8-1.8 6.5c-1 3.5-1.5 6.7-1.2 7.1.4.4-.2.5-1.3.3-1.9-.3-2 .2-1.7 8.4.5 11.1-.8 15.4-4.9 16.3-3.7.8-5.2 4.1-3.3 7 2.7 3.7 1.8 6.1-2.3 6.3-2.1.2-3.9.5-4.2.7-.2.3-1 0-1.8-.7-1.6-1.3-4.2.7-4.8 3.8-.2 1-.4 2.1-.5 2.4-.2.8-2.3-4.4-2.1-5.3.1-.5-.3-.6-.8-.3-.5.4-1.2.2-1.6-.3-.3-.7-1.5-.7-3-.1-1.9.7-2.3.6-1.8-.5.7-1.9.4-1.9-4.1.3-3.3 1.6-3.5 2-2.2 3.1s1.7 1.1 2.2-.2c.6-1.6 6.5 1 8 3.4.7 1.2-1.5 7.9-2.6 7.9-.5 0-1.2.9-1.5 2.1-.5 1.4-1.3 1.9-2.6 1.6-1-.3-2.1-.1-2.4.3s-1.4.6-2.4.3-2.2 0-2.5.6c-1.4 2.2-2.6 1-3.2-3-1-6.1-7.1-12.1-7.8-7.6-.6 4.3-7.6 6.9-7.6 2.8 0-2.4-3.6-1.7-5 1-.6 1-2.2 1.9-3.7 2.1-2.6.3-2.8.6-2.5 4.1.4 3.7.3 3.8-2.5 3.5-2.7-.3-2.8-.5-2.9-6.5v-6.1l3.5-1c6.3-1.9 8-2 8.5-.7.6 1.7 5.4.7 6.6-1.5 1.4-2.7-.3-7.4-2.8-7.8-1.2-.2-2.2.2-2.2.8 0 .7-1.2.9-3.5.4-4.8-.9-10.9 2.2-16.5 8.3-7.5 8.2-10.7 8-11.2-.5-.2-3.1-.7-4.6-1.5-4.4-1.6.3-1.7-1.5-.2-2 .6-.2 1.2-3 1.4-6.3.2-4.9.5-5.9 1.9-5.7.9.2 1.6-.4 1.6-1.2 0-1.9-2-3.2-2.1-1.4 0 .8-.2.9-.5.2-.6-1.4-8.4.3-8.4 1.7 0 .5-.7.9-1.5.9s-1.4.3-1.3.7c.5 1.3-8.3 10.4-9.5 10-.5-.1-1.6-1.5-2.5-2.9-1.5-2.6-1.5-2.8 1.1-4.8 4-3.2 3.5-5-1.3-5-3.4 0-4.2.4-5 2.5-1 2.7-5 3.5-5 1 0-.8-.9-1.5-2-1.5-1.3 0-2 .7-2 1.9 0 2.1 2.2 4.3 4 3.9.7-.2 1.4.2 1.7.9.4 1.2-2.7 2.6-6.6 2.8-1.3 0-3.1 1.1-3.9 2.3s-2.1 2.2-2.9 2.2-1.3.7-1.1 1.8c.2.9.8 1.7 1.5 1.7 2.5 0 2.3 1.4-.6 3.4-4.5 3.2-8.9.5-6.2-3.7.5-.9 0-2.2-1.5-3.7-1.3-1.3-2.4-2.8-2.4-3.3 0-1.9-4.9-1.9-6.9-.1-2.9 2.7-11.4 2.6-14.3-.1-1.2-1.1-3.4-2-5-2-4.3 0-3.8-4.3 1.2-10 2.2-2.5 4-5.2 4-6 0-3.4 6.5-7.1 8.7-4.9 1.6 1.6 7.5.3 10.7-2.2l2.6-2.1 3.1 2.6c1.7 1.4 3.4 2.6 3.9 2.6 1.4 0 2.1-1.8 1-2.5-2.2-1.4-4.7-9.7-2.7-8.9 1 .3 1.8-.2 2.2-1.5.3-1.1.9-2 1.3-2 5.7.8 8.6-2.3 3.5-3.6-2.1-.5-3.2-.2-4.4 1.4-1 1.2-2.5 2.1-3.6 2.1-2.6 0-4.7 1.6-3.9 2.9.4.6.4 1.7-.1 2.3-.4.7-.8 2-.8 2.8 0 1.9-.2 1.8-11.7-2.3-2.9-1-3.8-3.2-1.6-3.9 1.9-.7-.1-2.8-2.6-2.8-3.1 0-3.7.9-2.5 3.2.8 1.5.7 2.4-.5 3.7-.9 1-1.6 2.4-1.6 3.2-.2 4-5.7 8.1-10.7 7.8-2.6-.1-5.6.1-6.5.5-1.1.5-3 0-5.1-1.3-1.9-1.2-4.2-2.1-5.2-2.1s-2.5-.8-3.4-1.8c-.9-.9-2.5-2.2-3.5-2.8-1.1-.6-2.8-2.9-3.8-5.3-2.2-5.2-.9-6.1 5.2-3.7 4.4 1.7 9.6 2.1 10.4.7 1.1-1.7-7.1-7.1-10.8-7.1-2.3 0-4.4-.8-5.7-2.1-1.9-1.9-2.2-1.9-4.4-.5s-2.3 1.4-2.9-1.5c-.9-4.6.2-7.6 3.2-8.7 4.3-1.5 7.6-4.7 6.9-6.5-1-2.6-5-2-9.2 1.3-4.5 3.6-4.6 3.6-7.4.7-2.7-3-1.9-5.8 1.7-5.5 3.7.4 3.9-2 .3-3.3-2.2-.8-3.1-1.7-3.1-3.4 0-1.2-.6-4.1-1.4-6.3-1.1-3.1-1.2-4.4-.3-5.6 2.2-2.9.9-13.5-1.6-14.1-1.8-.5-2.2-1.4-2.4-5-.1-3.4-.8-5.1-2.9-7.2l-2.8-2.7 2.5-.6c4.7-1.1 3.2-13.2-1.6-12.2-2.9.5-6.3-7.5-4.6-10.7.9-1.6.8-2.2-.6-3-1.5-.8-1.6-1.4-.6-4.3 2.3-6.4 2.5-12.2.9-17.8-1.9-6.5-2-9.4-.3-11.2 2.9-2.9 4.4-13.6 2.7-19.8-1.6-6.1-.5-8.9 4-9.9.3 0 6.7.4 14.3.9m-30.3 7c0 .5-.9 1-2 1s-2-.5-2-1c0-.6.9-1 2-1s2 .4 2 1m253.3 22.4c.3.8 0 1.7-.8 2-1.9.7-8.7-1.3-8-2.5 1-1.5 8.2-1.1 8.8.5m-19.6 4.3c-.4.3-.7 0-.7-.7s.3-1 .7-.7c.3.4.3 1 0 1.4M214.4 472c1.7 1.7-.9 3.3-4.3 2.5-4.5-1-4.4-4.5.1-4 1.7.3 3.6.9 4.2 1.5m173.3 16.7c-.4.3-1 .3-1.4 0-.3-.4 0-.7.7-.7s1 .3.7.7m4.3-.2c0 .3-.2.5-.5.5s-.5-.2-.5-.5.2-.5.5-.5.5.2.5.5m-98 7c0 2.1-1.9 2.8-3.6 1.5-1-.9-1.1-1.6-.3-2.6 1.2-1.5 3.9-.8 3.9 1.1m57 14.7c0 3.4-1.5 5-4.1 4.6-3.3-.4-3.7-3.9-.7-5.4 3.6-1.8 4.8-1.6 4.8.8"/><path d="M325 52.5c0 .3.2.5.5.5s.5-.2.5-.5-.2-.5-.5-.5-.5.2-.5.5m-28 3.2c-3.7 1.4-3.3 5.3.5 4.5 2.4-.4 4-2.7 2.9-4.3-.6-1-1.2-1-3.4-.2m17.3 6.9c-1.5 1.6-2.3 3.6-2.2 5.7l.2 3.2 1-3.8c1.2-4.3 2.7-4.9 2.7-1 .1 2.2.2 2.5 1 1.2.9-1.6.9-8 0-7.8-.3.1-1.5 1.2-2.7 2.5m-15 3.9c-1.7 1.3-1.7 1.4 0 2.1 1.1.4 2.4.1 3.4-.8 2.1-2.1-.8-3.2-3.4-1.3m21.5.2c.7.3 1.6.2 1.9-.1.4-.3-.2-.6-1.3-.5-1.1 0-1.4.3-.6.6M288.2 77c-1.8 1.9-2.4 2-5.8 1.1-5.5-1.5-5.4-1.6-5.4 3.4 0 4.5.4 4.9 4.3 4.5 1-.1 2.5.4 3.3 1 2.7 2.3 8.4-1.4 8.2-5.3-.1-1.8 0-3.8.3-4.6.7-2.4-2.7-2.4-4.9-.1m1.8 3.9c0 1.8-1.8 2.1-3 .6-1-1.3-.9-1.5.9-1.5 1.1 0 2.1.4 2.1.9m29.2 6.2c.3.8 1.8 1.5 3.4 1.6s3 .7 3.2 1.3c.5 1.3 2.2 1.3 5.5-.3 3.1-1.4 3.5-2.7 1-2.8-1 0-4.4-.3-7.7-.6-4.6-.4-5.7-.2-5.4.8m36.1 4.6c.4.3 1 .3 1.4 0 .3-.4 0-.7-.7-.7s-1 .3-.7.7M213 72.4c0 .8-.5 1.6-1.1 1.8-1.7.6-1.4 5.7.4 7.5 2 2 8.1.8 7.3-1.4-.3-.8-.6-1.8-.6-2.2s-1.2-1.3-2.6-2c-1.9-.8-2.5-1.7-2.1-3.1.3-1.1.1-2-.4-2s-.9.6-.9 1.4m13.8-.7c-1.9.3-2.8 1-2.8 2.3 0 2.8 3.8 3.6 6.8 1.3 5.1-3.8 3.9-4.8-4-3.6M179 109.5c0 .3.2.5.5.5s.5-.2.5-.5-.2-.5-.5-.5-.5.2-.5.5m92 50c0 .3.2.5.5.5s.5-.2.5-.5-.2-.5-.5-.5-.5.2-.5.5m-14.8 3.7c-1.3 1.4-3.3 2-6 2-3.5-.1-14.5 2.6-11.4 2.7.6.1 1.2.6 1.2 1.2s-.7.9-1.5.6c-1.7-.7-6.1 4.8-4.6 5.8.5.3 1.3-.1 1.8-.9.6-1.2 9-5.5 10.8-5.6h3.3c1.6 0 3.7-.9 4.9-1.9 1.1-1 2.8-2.1 3.8-2.2 2.3-.5 3-2.5 1.2-3.2-.8-.3-2.3.4-3.5 1.5m101.8.3c0 .3.2.5.5.5s.5-.2.5-.5-.2-.5-.5-.5-.5.2-.5.5m-76.5 4.5c-2.7.4-6 .6-7.1.3-1.2-.3-2.5 0-2.8.6-.4.6-2.4 1.1-4.4 1.1s-6.8 1.1-10.7 2.5c-3.8 1.3-7.8 2.5-8.7 2.5-1 0-1.8.5-1.8 1 0 .6-2.1 2-4.7 3.2-5.7 2.5-3.3 3.9 2.6 1.5 10.1-4.1 14.8-5.7 16.7-5.7 1.1 0 2.5-.5 3.1-1.1s5.9-1.2 12.3-1.4c11.7-.3 16.8-2.1 13-4.5-.8-.5-1.7-.9-2-.9-.3.1-2.7.5-5.5.9m6.2.7c-.4.3-1 .3-1.4 0-.3-.4 0-.7.7-.7s1 .3.7.7m68.6 1c-4.5 1.6-5.6 1.6-26.6.7-13.8-.6-17-.5-17.7.7-.6.8-.5 1.6.2 2 3.5 2.2 68 1 69.4-1.3 1.4-2.2-19.7-4-25.3-2.1m-128 1c.4.3 1 .3 1.4 0 .3-.4 0-.7-.7-.7s-1 .3-.7.7m3.7 6.3c0 .7.3 1 .7.7.3-.4.3-1 0-1.4-.4-.3-.7 0-.7.7m-59 4c0 .7.3 1 .7.7.3-.4.3-1 0-1.4-.4-.3-.7 0-.7.7m3.5 0c-.3.5-.1 1 .4 1 .6 0 1.1-.5 1.1-1 0-.6-.2-1-.4-1-.3 0-.8.4-1.1 1m95.2-.3c-.2.2-2.6.5-5.3.8-4.2.4-6.6.9-11.6 2.1-.5.1-2.4.2-4.3.3-2.4.1-3.5.6-3.5 1.6 0 1.2 2.1 2.1 3.3 1.3.1-.1 1.2.4 2.5 1.1 1.8 1 2.2.9 2.2-.4 0-1 1.1-1.5 3.8-1.7 2 0 5.1-.3 6.7-.4 3.8-.4 73-.5 100.8-.2 15.5.2 20.7 0 20.7-.9 0-1.9-25-4.6-29-3.1-1.1.4-6.7.6-12.3.3s-15.6-.4-22.2-.4c-13.4.1-19.1 0-38.2-.5-7.3-.1-13.4-.1-13.6.1m58.3 2.8c0 .3-.2.5-.5.5s-.5-.2-.5-.5.2-.5.5-.5.5.2.5.5m-149 .2c0 1.8.5 3.3 1 3.3 1.3 0 1.3-3 0-5-.7-1.1-1-.7-1 1.7m-8.1 4c-2.7.7-3.1 5.3-.5 5.3 2.8 0 4.2-1.1 5-3.8.8-2.3-.4-2.6-4.5-1.5m65.2 4.2c-1 .6-1 1-.1 1.6.7.4 1.9 0 2.8-.9 1.8-1.8-.1-2.3-2.7-.7m23.9.3c-24.5 11.5-31.4 15.9-27.5 17.5 1.1.4 2.1 0 2.7-1 .4-.9 2.5-1.9 4.6-2.3 2-.3 4.6-1.5 5.7-2.4 2.2-2.1 11.7-6 14.3-6 .9 0 3.1-.8 4.7-1.7 2.6-1.4 7-1.6 36.3-1.5 51.1.2 40.8-2.1-14.8-3.3-16.9-.4-24.2-.2-26 .7m-30.6 3.7c.7 1.1-6.4 4.9-8.1 4.4-.7-.3-1.3.2-1.3 1.1 0 1.6-2.8 3.5-6.1 4.1-14 2.7-20.3 6.1-9.4 5.1 10.2-1 12.5-1.6 12.5-3.2 0-.9.4-1.3.9-1 .4.3 1.6-.3 2.6-1.4s2.9-2 4.2-2c1.2 0 3.2-.9 4.2-1.9 1.1-1.1 2.9-2.5 4.1-3.1 2.6-1.4 1.7-3-1.6-3-1.4 0-2.3.4-2 .9"/><path d="M286 201.1c0 .5.5.7 1 .4.6-.3 1-.8 1-1.1 0-.2-.4-.4-1-.4-.5 0-1 .5-1 1.1m5.9.9c-1.1.7-1 1 .4 1.6 1 .4 2.3.2 2.8-.3 1.4-1.4-1.3-2.4-3.2-1.3m92.1 3c0 .5.7 1 1.6 1 .8 0 1.2-.5.9-1-.3-.6-1-1-1.6-1-.5 0-.9.4-.9 1m-26 2.1c-.8.4-2.3 1-3.2 1.3-2.6.8-2.3 3.6.2 2.9 1.4-.4 2.2.1 2.8 1.8 1.2 3.2 5 3.2 6.7 0 2.1-4.1-2.4-8.2-6.5-6m-167 1.4c0 .3.2.5.5.5s.5-.2.5-.5-.2-.5-.5-.5-.5.2-.5.5m-18 2c0 .3.2.5.5.5s.5-.2.5-.5-.2-.5-.5-.5-.5.2-.5.5m27 2.5c0 .5.5 1 1 1 .6 0 1-.5 1-1 0-.6-.4-1-1-1-.5 0-1 .4-1 1m21.6 1.1c-1.7.4-3.4 1.5-3.8 2.4-.5.8-2.2 1.5-3.8 1.5-1.7 0-3 .5-3 1.1 0 .7-1 .9-2.5.5-2.1-.5-2.5-.3-2.5 1.7s.5 2.2 3.9 2.2c2.2 0 3.7-.3 3.5-.7-.5-.7 7.2-4.8 9.1-4.8 1 0 4.5-3.5 4.5-4.5 0-.7-2-.5-5.4.6m6.4-.6c0 .3.2.5.5.5s.5-.2.5-.5-.2-.5-.5-.5-.5.2-.5.5m11.5 3.5c-.3.5.3 1 1.5 1s1.8-.5 1.5-1c-.3-.6-1-1-1.5-1s-1.2.4-1.5 1m64.4.4c-.2.2-3.3.7-6.8 1-3.6.4-6.9 1-7.4 1.3-1.7 1-19.8.4-21.2-.7-1.4-1.2-6.4.5-7.8 2.7-.4.7-1.4 1.3-2.1 1.3-.8 0-1.9.6-2.5 1.4-.7.8-2.4 1.7-3.9 2.1-1.5.3-5 2.2-7.9 4.1-2.8 1.9-5.9 3.4-6.8 3.4s-2.7 1.1-4.1 2.5-3.6 2.5-4.9 2.5c-1.4 0-2.5.4-2.5.9s-1.3 1.4-2.9 2.1c-4.3 1.8-7.3 5.5-7.7 9.5-.2 2-.9 5.1-1.5 6.9-3.1 8.6 4.9 8 10.6-.8 1.4-2.1 3.1-3.2 5.5-3.6 4.7-.8 7.5-2.4 9.8-5.7 4-5.6 27.8-14.4 33.4-12.4 1.8.7 7.6 1.5 12.8 1.8 5.5.4 10.4 1.2 11.7 2 3.8 2.5 8.9 1.3 8.5-2s2-3.6 5.8-.7c4.8 3.7 6.9 2 4.5-3.6-1.4-3.5-1.4-3.9.3-5.8 3.5-3.9 3.4-5.4-.6-8.1-3.2-2.2-10.8-3.5-12.3-2.1m22.3 1.8c-.7.7-1.2 4.3-1.2 9 0 8.8 1.5 10.8 5.1 6.9 2-2.1 4.8-1.7 6.4.9 1.1 1.8 5.3 1.1 6-1 .8-2.5-.1-3.9-3.2-5.1-2.2-.8-2.5-1.4-2-4.4.5-3.3.4-3.5-4-5.5-5.3-2.3-5.5-2.4-7.1-.8M215 223.5c0 .3.2.5.5.5s.5-.2.5-.5-.2-.5-.5-.5-.5.2-.5.5m125.6 17c.4.8 1 1.5 1.5 1.5.4 0 .6-.7.3-1.5-.4-.8-1-1.5-1.5-1.5-.4 0-.6.7-.3 1.5m-21.6 17c0 .3.2.5.5.5s.5-.2.5-.5-.2-.5-.5-.5-.5.2-.5.5m-168-96c0 .3.2.5.5.5s.5-.2.5-.5-.2-.5-.5-.5-.5.2-.5.5m-2.6 2.7c-.4.7-.3.8.4.4 1.2-.7 1.6-1.6.8-1.6-.3 0-.8.5-1.2 1.2M112 216.5c0 .3.2.5.5.5s.5-.2.5-.5-.2-.5-.5-.5-.5.2-.5.5m39 7c0 .3.2.5.5.5s.5-.2.5-.5-.2-.5-.5-.5-.5.2-.5.5m-19 1c0 .3.2.5.5.5s.5-.2.5-.5-.2-.5-.5-.5-.5.2-.5.5m142 66.3c-4.3 4.2-4.9 6.6-2.6 11.1 5.3 10.2 18.8 7.2 21.2-4.7.6-2.7.1-3.7-2.9-6.7-5.1-5.1-10.1-5-15.7.3m6 3.1c0 .5-.7 1.4-1.5 2.1-1.8 1.5-4.2-.1-3.1-1.9.8-1.3 4.6-1.5 4.6-.2"/><path d="M317 304c-.8.6-4.9.9-9.1.8-5.5-.2-8.2.2-9.4 1.2-1.8 1.5-5.3 3.6-7 4.3-4.1 1.7-8.7 2.7-11.9 2.7-2 0-4.5.4-5.5 1-1.3.7-2.3.4-3.7-.8-3-2.8-9.7-5-12.2-4.1-2.2.8-3.1 2.9-1.2 2.9.6 0 1 .9 1 1.9s.7 2.2 1.6 2.5c.8.3 1.2 1 .9 1.6-.7 1.2 3.6 3 7.3 3 1.5 0 5.4.9 8.7 1.9 4.6 1.4 8.1 1.7 15.4 1.3 5.7-.2 9.6 0 10 .6.6 1 2.5 1.5 4.9 1.3.7 0 1.7-1.2 2.1-2.5.6-1.5 2-2.5 4-2.9 2.6-.6 3.1-1.1 3.1-3.6 0-2.1.6-3.2 2-3.6s2-1.5 2-3.5c0-1.6.5-3 1.2-3.2 1.5-.5.3-3.8-1.4-3.8-.7 0-2 .5-2.8 1m-52 7.5c0 .3-.2.5-.5.5s-.5-.2-.5-.5.2-.5.5-.5.5.2.5.5m34.7 11.2c-.4.3-.7 0-.7-.7s.3-1 .7-.7c.3.4.3 1 0 1.4m2.3-.2c0 .3-.2.5-.5.5s-.5-.2-.5-.5.2-.5.5-.5.5.2.5.5m98-48.5c0 .7.3 1 .7.7.3-.4.3-1 0-1.4-.4-.3-.7 0-.7.7m-.4 3.8c-.3.6-.1 1.4.5 1.7 1.4.9 2 .2 1-1.4q-.9-1.2-1.5-.3m-5 9.3c-3.5 2.8-3.3 4.3.4 3.5 3.3-.6 3.7.1 1.7 2.8-1.3 1.7-4.7 1.3-4.7-.6 0-.5-.4-.6-1-.3-2.2 1.4-1 6.2 2.2 8.9 8.1 6.7 16.6 2.9 15.4-6.8-.9-7.9-8.3-11.9-14-7.5m8.4 5.4c1 1.2 1 1.5-.3 1.5-.8 0-2-.7-2.7-1.5-1-1.2-1-1.5.3-1.5.8 0 2 .7 2.7 1.5M229 296c0 .5.7 1 1.5 1s1.5-.5 1.5-1c0-.6-.7-1-1.5-1s-1.5.4-1.5 1m-5.7.7c.4.3 1 .3 1.4 0 .3-.4 0-.7-.7-.7s-1 .3-.7.7m-35 18.7c0 .6.9 1.3 1.9 1.3 1 .1 1.8 0 1.8-.2s-.8-.9-1.8-1.4c-1.4-.7-1.9-.6-1.9.3m-.3 3.1c0 .3.2.5.5.5s.5-.2.5-.5-.2-.5-.5-.5-.5.2-.5.5m200 28.6c0 .5.9 2.9 2.1 5.4 2.3 4.8 6.2 6 11.1 3.4 1.9-1 1.9-1.2-1.3-4-1.9-1.5-4.2-2.8-5.1-2.9-.9 0-1.9-.4-2.2-.9-.8-1.2-4.6-2.1-4.6-1m-37 4.4c0 .3.2.5.5.5s.5-.2.5-.5-.2-.5-.5-.5-.5.2-.5.5m-168.4 3.9c-1.7 2.7-1.3 4.9 1.5 8 2.3 2.4 3.6 1.4 5-3.6 1.6-6.3-3.1-9.5-6.5-4.4m158.9-1.4c-1.1.5-2.9 1.1-4 1.5-1.4.4-1.6.8-.7 1.4 1.9 1.1 6.3.1 6.9-1.6.7-1.9.2-2.2-2.2-1.3m3.5 1.5c0 .3.2.5.5.5s.5-.2.5-.5-.2-.5-.5-.5-.5.2-.5.5M192 358c0 .7 3.4 2 5.3 2 .4 0 .7-.6.7-1.4 0-1-1-1.4-3-1.4-1.6.1-3 .4-3 .8m5 5.5c0 .8.4 1.5.9 1.5s1.6.3 2.5.6c2.6 1 1.8-1.2-.9-2.4-2.1-1-2.5-.9-2.5.3m21.9 2c-2.1 2.1 1.6 7.2 3.8 5.3.9-.7 1.3-.7 1.3.1 0 .6.9 1.1 1.9 1.1 1.3 0 1.9-.6 1.8-1.9-.1-1.6-.4-1.7-1.5-.9-1 .9-1.7.7-3-.7-.9-1-1.1-1.5-.5-1.1.9.5 1.1.2.7-.8-.3-.9-1-1.4-1.4-1.1-.5.3-1 0-1.2-.5-.2-.6-1-.4-1.9.5m-21.9 1c0 .3.2.5.5.5s.5-.2.5-.5-.2-.5-.5-.5-.5.2-.5.5m29 0c0 .3.2.5.5.5s.5-.2.5-.5-.2-.5-.5-.5-.5.2-.5.5m-11 1c0 .3.2.5.5.5s.5-.2.5-.5-.2-.5-.5-.5-.5.2-.5.5m23.4 1.2c-1.6 1.6-1.5 1.8.9 2.6 2.8.9 4.4 4.5 1.9 4.3-.8 0-2.3 1.3-3.3 3.1l-1.8 3.2 3 1.5c3 1.5 3 1.5 3.6-1.7.4-1.8.6-3.7.4-4.2-.1-.6.1-.7.5-.3 1 1.1 6.4-5.1 6.4-7.3 0-3.2-8.6-4.1-11.6-1.2m2.6 7.8c0 .3-.2.5-.5.5s-.5-.2-.5-.5.2-.5.5-.5.5.2.5.5m-53.2-7.8c.6.2 1 .9.7 1.3-.3.5-.1 1.1.5 1.5.5.3 1-.3 1-1.4 0-1.4-.6-2.1-1.7-2-1.1 0-1.3.3-.5.6m5.2-.2c0 .3.2.5.5.5s.5-.2.5-.5-.2-.5-.5-.5-.5.2-.5.5m-21 6.1c0 .8.5 1.2 1 .9.6-.3 1-1 1-1.6 0-.5-.4-.9-1-.9-.5 0-1 .7-1 1.6m16.6 1c-1.2 1.7-1.5 2.9-.8 3.6 1.3 1.3 3.5 0 2.8-1.7-.3-.8 0-1.6.7-1.8.9-.3.9-.8.1-1.6-.8-.9-1.5-.5-2.8 1.5m61.1 7.4-2.5 3 2.1 3.9c1.8 3.3 2.4 3.8 4 2.9 1-.5 2.1-.7 2.4-.4 1.1 1.1 6.2-2.8 6.8-5.2 1.7-6.9-7.9-10.1-12.8-4.2m-31.5-.6c1 .7 1.4 1.6 1 2.1-.4.4.3.4 1.6 0s2.9-.2 3.7.5c.9.7 1.5.8 2 0 .4-.7 1.3-.7 2.7.1 1.7.9 1.8 1.3.7 2s-1.1.9.2.9c1.7 0 2.9-1.9 2.9-4.7 0-1.1-.8-1.4-3-1.1-1.7.3-3.3.1-3.6-.4-.3-.4-2.6-.8-5.2-.8-4.1.1-4.5.2-3 1.4"/><path d="M227 385.5c0 .3.2.5.5.5s.5-.2.5-.5-.2-.5-.5-.5-.5.2-.5.5m-44.7 7.7c-3.4 4.3-3.4 5.6.2 7.7 3.9 2.3 4 2.2 4.9-4.2.7-4.5.6-4.7-1.7-4.7-1.4 0-2.9.6-3.4 1.2m43.7-.7c0 .3.2.5.5.5s.5-.2.5-.5-.2-.5-.5-.5-.5.2-.5.5m-26.6 2.2c.3.8.6 1.9.6 2.4s.7.9 1.5.9 1.5.4 1.5 1c0 .5.5 1 1 1 1.6 0 1.2-3.6-.6-5.1-2.3-1.9-4.7-2.1-4-.2m65.9 1.5c-2 2.4-2 5.8 0 5.8 4.2-.1 5.7-1.3 5.7-4.6 0-4.1-2.6-4.6-5.7-1.2m78.7-.7c-1.4.8-4.6 1.4-7.2 1.5-4.1 0-5 .4-7 3-1.8 2.4-2.9 3-6 3-4.5 0-6.2 2.6-4.4 7.2 1.3 3.5.2 4.6-2.4 2.3-1.1-1-3.9-2.8-6.2-4l-4.3-2.1-4.7 2.4c-2.7 1.3-4.8 2.8-4.8 3.4 0 .5-.5.6-1 .3-1.2-.8-9 5.1-9 6.8-.1 1.2-4.5 6.7-5.5 6.7-.3 0-.5-.6-.5-1.3 0-2.5-6.3-5.1-8.8-3.8s-2.7 2.9-1.1 6.5c.9 1.9 1.6 2.3 2.8 1.6 1.4-.7 1.6 0 1.3 6.4-.5 9.5 1.4 13.7 5.8 13.2 1.6-.2 2.7 0 2.5.4-.7 1.1 2.4 3.5 3.2 2.6.4-.4.2-1.5-.4-2.5-2.4-3.8 4.9-14.2 12.8-18.4 4.8-2.5 16.1-9.7 16.9-10.8.6-.9 7.8-1.8 20.5-2.7 8.6-.6 10.5-1.1 14-3.5 2.2-1.5 5-2.7 6.2-2.7 10.3 0 10.2-11.6-.1-14.4-8.7-2.4-10-2.5-12.6-1.1"/><path d="M206.4 400.9c-5.1 5.4-7.4 5-6.5-1.1.1-.6-9.9 2-10.8 2.8-.5.5-1.1 4-1.2 6.8 0 1 .7 2.6 1.5 3.5.9 1 1.6 2.5 1.6 3.4s.4 1.9 1 2.2.7-.1.4-.9c-.9-2.3.1-2 5.6 2 4.8 3.5 6.5 6.4 3.6 6.4-2.2 0-7 7-5.7 8.3.7.7 1.3.5 1.8-.9.9-2.3 9.3-10.1 9.3-8.7 0 .5-.5 1.4-1.2 2.1-1.6 1.6-.6 2.4 4.5 2.9 3.8.5 4.5.3 4.9-1.5.4-1.3 1.8-2.4 3.4-2.8s3.5-1.6 4.2-2.6c1.7-2.4 4.3-2.3 6.5.2.9 1.1 1.4 2 1.2 2-.3 0 .2 1.2 1.2 2.6 1.5 2.3 2.2 2.6 5.9 2.1 4.5-.5 5.9.7 4.8 3.8-.5 1.2.2 1.5 3.5 1.5 4.6 0 6.1-1.8 6.1-7.1 0-1.8.6-4.8 1.2-6.7 1.2-3.2 1.1-3.5-2-6-3-2.5-3.2-3-2.3-5.7.9-2.5.9-4.6.2-7.3-.1-.1-1.2.5-2.5 1.3-3.2 2.1-4 5.2-1.5 6 3.3 1.1 2.2 3.9-2.3 6-4.6 2.1-6.3 6.3-2.4 5.7 2.9-.5 10.6 2.7 10.6 4.5 0 1-.6 1.3-1.6.9-.8-.3-2.4-.1-3.5.4-2.2 1.2-11.9-2.6-11.9-4.6 0-1.2-5.9-6.4-7.3-6.4-.5 0-.7-1.1-.5-2.5 1.1-5.4-6.3-7.1-11.3-2.7-2.8 2.5-3 3.1-2 5.1 1.8 3.4.9 4.4-4 4.7-5.3.2-7.3-1-5.9-3.6.6-1 1-3.3 1-5.1 0-3.3 4.6-8.9 7.4-8.9.8 0 1.6-.7 2-1.5.3-.8 1.7-1.5 3.2-1.5 4.2 0 2.2-2.4-2.3-2.8-3.6-.3-4.4.1-7.9 3.7m56.6 6.6c0 .3.2.5.5.5s.5-.2.5-.5-.2-.5-.5-.5-.5.2-.5.5m2 0c0 .3.2.5.5.5s.5-.2.5-.5-.2-.5-.5-.5-.5.2-.5.5"/><path d="M204.4 433.6c-.8 4.2.7 5.8 4.6 4.8 3.1-.7 3-.6 2.3-3.2-.3-1.3-1.8-2.9-3.4-3.7-2.8-1.5-2.8-1.5-3.5 2.1m17.6.4c0 4.1.8 4.7 4.1 3 3.4-1.9 1.8-7-2.3-7-1.4 0-1.8.8-1.8 4m18.3 2.7c.4.3 1 .3 1.4 0 .3-.4 0-.7-.7-.7s-1 .3-.7.7m8.5 2.3c-3.1 2.8-3.7 7.4-1.3 8.4 2.8 1 7.4-9.3 4.8-10.7-.5-.2-2 .8-3.5 2.3m-21.9 2c-1.5 1.5-3.7 2.8-5 2.9-5.1.2-6.9.6-6.9 1.5 0 .5-.7 1.7-1.5 2.6-1.5 1.6-1.3 2 1.5 4.9 4 3.9 4.4 3.9 3.7-.4-.7-4.2 1.7-6.1 6.6-5.1 2.3.5 3.6.1 5.3-1.5 1.3-1.2 3.7-2.4 5.5-2.8 4.6-.9 4.6-2.4-.1-3.9-5.4-1.6-6.1-1.5-9.1 1.8m135.6 2.3c-5.9 1.7-8.5 3.5-8.5 5.8 0 1.2-1 2.3-2.7 3-4.7 1.8-5 2.4-4.2 9 .9 8.1 2.1 9.1 5.9 5.4 4.9-4.7 7.4-2.1 5.4 5.7-.5 2.3-.2 2.8 1.9 3.3 1.4.4 2.8 1.4 3.1 2.2.4.9 1.4 1.3 2.6 1 1.1-.3 2-.1 2 .4s1.6.2 3.6-.6c2.8-1.2 4-1.2 5.1-.4 2 1.7 2.5.6 1.3-2.7-.8-2-.8-3-.1-3.2s.6-1.1-.4-2.5c-2.1-3-1.9-4.7.5-4.7 1.1 0 2 .6 2 1.3 0 .8 1 2.2 2.1 3.3 2.5 2.2 2.5 2.3-2-7.1-1.9-3.9-3.3-7.6-3.2-8.3.1-.6-.7-1.2-1.9-1.2-1.1 0-2.3-.7-2.7-1.6-.7-1.8.9-5.1 2.2-4.6.9.4 2.5-1.8 2.5-3.6 0-1.5-8.9-1.5-14.5.1M339 459c0 4.4.2 5 2.1 5 1.4 0 1.9-.5 1.6-1.4-.3-.8-.2-2.8.3-4.5.6-2.3.5-3.1-.7-3.5-2.9-1.1-3.3-.6-3.3 4.4m-133-2.7-3.5 1.2 4.4.3c4.8.4 7.1-.2 7.1-1.8 0-1.3-3.5-1.2-8 .3m16.5 2.7c-.3.5-.1 1 .4 1 .6 0 1.1-.5 1.1-1 0-.6-.2-1-.4-1-.3 0-.8.4-1.1 1m52.5 4.1c-1.9 1-4.3 1.8-5.2 1.9-1 0-1.8.5-1.8 1 0 .6-1.6 2-3.5 3.1-2.5 1.5-3.5 2.8-3.5 4.5 0 2-.5 2.4-3.1 2.4-3.4 0-5.3 1.4-6.1 4.6-.5 2-.2 2.1 2.5 1.7 3.8-.6 7.7-3.1 7.7-4.9 0-.8.7-1.4 1.5-1.4.9 0 2.7-1.2 4-2.6 2.3-2.4 2.5-2.5 4.9-.9 2.6 1.8 4.6 1.3 4.6-1 0-2 4-4.5 7.1-4.5 4 0 4.2-1.1.4-3-5.6-2.8-5.9-2.9-9.5-.9m-60-.6c0 .3.2.5.5.5s.5-.2.5-.5-.2-.5-.5-.5-.5.2-.5.5m90 1c0 .8.9 1.5 1.9 1.5s2.1-.7 2.5-1.5c.4-1.1-.1-1.5-1.9-1.5-1.6 0-2.5.6-2.5 1.5m-36 0c0 .3.2.5.5.5s.5-.2.5-.5-.2-.5-.5-.5-.5.2-.5.5m-31.8 5.3c-2.9.4-3.7 2.4-2.2 5.2l1.2 2.2 2.4-2.3c3.8-3.5 3.1-5.9-1.4-5.1m52.8 7.7c0 .3.2.5.5.5s.5-.2.5-.5-.2-.5-.5-.5-.5.2-.5.5m80.8 4.2c.7.3 1.6.2 1.9-.1.4-.3-.2-.6-1.3-.5-1.1 0-1.4.3-.6.6m5.2-.2c0 .3.2.5.5.5s.5-.2.5-.5-.2-.5-.5-.5-.5.2-.5.5m4 2.5c0 .7.3 1 .7.7.3-.4.3-1 0-1.4-.4-.3-.7 0-.7.7m-70.3 6c-.4 1.6-.1 2 1.1 1.8 1.9-.4 2.3-2.9.6-3.5-.6-.2-1.4.6-1.7 1.7m44.8-1c.3.5 1.2.7 2 .3 2.1-.7 1.9-1.3-.6-1.3-1.1 0-1.8.4-1.4 1M112 308c0 .7.3 1 .7.7.3-.4.3-1 0-1.4-.4-.3-.7 0-.7.7m8.2 19.3c-.6.7-3.1 1.8-5.6 2.6-2.7.8-4.6 1.9-4.6 2.7s-.6 1.7-1.4 2c-2.5.9-3.5 9-2 16.1.7 3.6 10.6 14 12.8 13.5.8-.1 4.2 1.1 7.7 2.8 7.5 3.5 9 3.7 11.3 1.1 2.3-2.5.8-3.5-8.3-5.1-8.2-1.5-11.7-3.8-15.7-10.1-2.9-4.7-3-6-.4-7.7 1.1-.7 3.4-3.5 5.1-6.2 1.8-2.9 3.8-5 4.8-5 2.6 0 3.2 1 2 3.2s-.5 3.2 2.7 4.2c1.6.5 2.3 0 3.2-1.9 1.5-3.2.7-5.2-3.9-9.8-4-3.9-6-4.5-7.7-2.4"/><path d="M130 343.5c0 .3.2.5.5.5s.5-.2.5-.5-.2-.5-.5-.5-.5.2-.5.5m0 7c-1.1 1.3-.4 6.5.9 6.5.3 0 1.6.3 2.9.6 2 .6 2.2.3 1.8-1.7-1-5.7-3.4-8-5.6-5.4m-28 18c0 .3.2.5.5.5s.5-.2.5-.5-.2-.5-.5-.5-.5.2-.5.5"/></svg>