<svg xmlns="http://www.w3.org/2000/svg" width="512" height="512" viewBox="0 0 64 64" xml:space="preserve"><path d="M4 3a1 1 0 0 0-1 1v56a1 1 0 0 0 2 0V4a1 1 0 0 0-1-1m8 0a1 1 0 0 0-1 1v56a1 1 0 0 0 2 0V4a1 1 0 0 0-1-1m8 0a1 1 0 0 0-1 1v56a1 1 0 0 0 2 0V4a1 1 0 0 0-1-1m8 0a1 1 0 0 0-1 1v56a1 1 0 0 0 2 0V4a1 1 0 0 0-1-1m8 0a1 1 0 0 0-1 1v56a1 1 0 0 0 2 0V4a1 1 0 0 0-1-1m8 0a1 1 0 0 0-1 1v56a1 1 0 0 0 2 0V4a1 1 0 0 0-1-1m8 0a1 1 0 0 0-1 1v56a1 1 0 0 0 2 0V4a1 1 0 0 0-1-1m8 0a1 1 0 0 0-1 1v56a1 1 0 0 0 2 0V4a1 1 0 0 0-1-1" data-original="#000000" data-name="Layer 29"/></svg>